<?xml version="1.0" encoding="UTF-8" standalone="no"?>
<svg
   xmlns:dc="http://purl.org/dc/elements/1.1/"
   xmlns:cc="http://creativecommons.org/ns#"
   xmlns:rdf="http://www.w3.org/1999/02/22-rdf-syntax-ns#"
   xmlns:svg="http://www.w3.org/2000/svg"
   xmlns="http://www.w3.org/2000/svg"
   xmlns:xlink="http://www.w3.org/1999/xlink"
   xmlns:sodipodi="http://sodipodi.sourceforge.net/DTD/sodipodi-0.dtd"
   xmlns:inkscape="http://www.inkscape.org/namespaces/inkscape"
   width="210mm"
   height="297mm"
   viewBox="0 0 210 297"
   version="1.1"
   id="svg5996"
   inkscape:version="1.0.2-2 (e86c870879, 2021-01-15)"
   sodipodi:docname="Things.svg">
  <defs
     id="defs5990">
    <linearGradient
       inkscape:collect="always"
       id="linearGradient2410">
      <stop
         style="stop-color:#b19627;stop-opacity:1;"
         offset="0"
         id="stop2406" />
      <stop
         style="stop-color:#caab2d;stop-opacity:1"
         offset="1"
         id="stop2408" />
    </linearGradient>
    <linearGradient
       inkscape:collect="always"
       id="linearGradient2396">
      <stop
         style="stop-color:#b19627;stop-opacity:1;"
         offset="0"
         id="stop2392" />
      <stop
         style="stop-color:#d9c055;stop-opacity:1"
         offset="1"
         id="stop2394" />
    </linearGradient>
    <linearGradient
       inkscape:collect="always"
       id="linearGradient896">
      <stop
         style="stop-color:#e4e4e4;stop-opacity:1"
         offset="0"
         id="stop892" />
      <stop
         style="stop-color:#f7f7f7;stop-opacity:1"
         offset="1"
         id="stop894" />
    </linearGradient>
    <linearGradient
       inkscape:collect="always"
       id="linearGradient850">
      <stop
         style="stop-color:#767676;stop-opacity:1;"
         offset="0"
         id="stop846" />
      <stop
         style="stop-color:#8c8c8c;stop-opacity:1"
         offset="1"
         id="stop848" />
    </linearGradient>
    <linearGradient
       inkscape:collect="always"
       xlink:href="#linearGradient850"
       id="linearGradient852"
       x1="6.6817384"
       y1="12.227581"
       x2="12.49485"
       y2="10.289877"
       gradientUnits="userSpaceOnUse" />
    <radialGradient
       inkscape:collect="always"
       xlink:href="#linearGradient896"
       id="radialGradient900"
       cx="75.784233"
       cy="12.284225"
       fx="75.784233"
       fy="12.284225"
       r="6.2476185"
       gradientUnits="userSpaceOnUse"
       gradientTransform="matrix(0.96965651,0.05443866,-0.05839762,1.0401732,3.0169273,-4.619089)" />
    <radialGradient
       inkscape:collect="always"
       xlink:href="#linearGradient2396"
       id="radialGradient2402"
       cx="103.58122"
       cy="143.11948"
       fx="103.58122"
       fy="143.11948"
       r="60.857597"
       gradientTransform="matrix(0.09549435,-0.04543051,0.02817178,0.05921672,175.89236,7.2788795)"
       gradientUnits="userSpaceOnUse" />
    <radialGradient
       inkscape:collect="always"
       xlink:href="#linearGradient2410"
       id="radialGradient2404"
       cx="32.541805"
       cy="46.122864"
       fx="32.541805"
       fy="46.122864"
       r="6.7529936"
       gradientTransform="matrix(0.36487358,-0.12207107,0.09342093,0.2792376,176.4465,5.7616075)"
       gradientUnits="userSpaceOnUse" />
  </defs>
  <sodipodi:namedview
     id="base"
     pagecolor="#ffffff"
     bordercolor="#666666"
     borderopacity="1.0"
     inkscape:pageopacity="0.0"
     inkscape:pageshadow="2"
     inkscape:zoom="1.979899"
     inkscape:cx="70.392487"
     inkscape:cy="19.539797"
     inkscape:document-units="mm"
     inkscape:current-layer="layer1"
     inkscape:document-rotation="0"
     showgrid="false"
     inkscape:window-width="1920"
     inkscape:window-height="1017"
     inkscape:window-x="1592"
     inkscape:window-y="-8"
     inkscape:window-maximized="1"
     inkscape:snap-global="false" />
  <metadata
     id="metadata5993">
    <rdf:RDF>
      <cc:Work
         rdf:about="">
        <dc:format>image/svg+xml</dc:format>
        <dc:type
           rdf:resource="http://purl.org/dc/dcmitype/StillImage" />
        <dc:title />
      </cc:Work>
    </rdf:RDF>
  </metadata>
  <g
     inkscape:label="Layer 1"
     inkscape:groupmode="layer"
     id="layer1">
    <circle
       style="fill:#767676;fill-opacity:1;stroke:#000000;stroke-width:0.284852;stroke-opacity:1;stop-color:#000000"
       id="path6559"
       cx="6.8613963"
       cy="9.3576899"
       rx="4.9701085"
       ry="4.9391384"
       transform="matrix(0.99376875,-0.11146153,0,1,0,0)"
       inkscape:export-xdpi="97.097099"
       inkscape:export-ydpi="97.097099" />
    <g
       id="g844"
       style="fill-opacity:1;fill:url(#linearGradient852)"
       inkscape:export-xdpi="97.097099"
       inkscape:export-ydpi="97.097099">
      <path
         style="font-variation-settings:normal;opacity:1;vector-effect:none;fill:url(#linearGradient852);fill-opacity:1.0;stroke:#000000;stroke-width:0.283963;stroke-linecap:butt;stroke-linejoin:miter;stroke-miterlimit:4;stroke-dasharray:none;stroke-dashoffset:0;stroke-opacity:1;stop-color:#000000;stop-opacity:1"
         d="m 7.31217,6.7663346 9.40288,9.3357164 -0.134327,2.082066 H 14.901637 L 5.498758,9.5200346 Z"
         id="path6561"
         inkscape:export-xdpi="97.097099"
         inkscape:export-ydpi="97.097099" />
      <ellipse
         style="fill:url(#linearGradient852);stroke:#000000;stroke-width:0.57189;stop-color:#000000;fill-opacity:1.0"
         id="path840"
         cx="7.0853095"
         cy="8.9247808"
         rx="5.8530812"
         ry="5.7128859"
         transform="matrix(0.97604759,-0.21755714,0,1,0,0)" />
    </g>
    <rect
       style="fill:#000000;fill-opacity:1;stroke:none;stroke-width:0.1;stroke-miterlimit:4;stroke-dasharray:none;stop-color:#000000"
       id="rect866"
       width="0.15869127"
       height="0.56794775"
       x="31.646385"
       y="2.4137778"
       inkscape:export-xdpi="97.097099"
       inkscape:export-ydpi="97.097099" />
    <path
       style="fill:#cecece;fill-opacity:1;stroke:none;stroke-width:0.264583px;stroke-linecap:butt;stroke-linejoin:miter;stroke-opacity:1"
       d="m 30.589168,2.8191849 -0.334087,9.1539811 2.071339,0.06682 0.400903,-9.4212503 z"
       id="path854"
       inkscape:export-xdpi="97.097099"
       inkscape:export-ydpi="97.097099" />
    <path
       id="path856"
       style="fill:#967f21;fill-opacity:1;stroke:#000000;stroke-width:0.1;stroke-linecap:butt;stroke-linejoin:miter;stroke-miterlimit:4;stroke-dasharray:none;stroke-opacity:1"
       d="m 29.812872,11.847117 c 0,0 0.02377,0.354278 0.189136,0.649573 0.165364,0.295293 0.791166,0.531751 0.791166,0.531751 l -0.09457,0.153478 -0.791166,0.02377 -0.01188,0.17725 0.756026,-0.01188 -0.02377,0.165364 -0.814939,-0.02377 -0.01188,0.165364 0.897619,0.04703 0.0708,0.201021 c 0,0 -0.921243,0.118043 -0.89762,0.236161 0.02362,0.118118 0.0358,0.165217 0.142111,0.224276 0.106306,0.05906 0.74414,0.106454 0.74414,0.106454 L 30.56891,14.90637 c 0,0 -1.464954,0.34254 -1.453142,0.413411 0.01181,0.07087 -0.03514,0.283704 -0.03514,0.283704 l 1.819011,0.105937 0.413411,0.0035 0.412895,-0.0035 1.819011,-0.105937 c 0,0 -0.04695,-0.212834 -0.03514,-0.283704 0.0118,-0.07087 -1.453142,-0.413411 -1.453142,-0.413411 l -0.188619,-0.413411 c 0,0 0.637834,-0.04739 0.744141,-0.106454 0.10631,-0.05906 0.117972,-0.106158 0.141592,-0.224276 0.02363,-0.118118 -0.897619,-0.236161 -0.897619,-0.236161 l 0.0708,-0.201021 0.897619,-0.04703 -0.01188,-0.165364 -0.814937,0.02377 -0.02377,-0.165365 0.756026,0.01188 -0.01188,-0.17725 -0.791179,-0.02377 -0.09457,-0.153478 c 0,0 0.626318,-0.236458 0.791683,-0.531751 0.165367,-0.295295 0.188618,-0.649573 0.188618,-0.649573 l -1.476395,0.03566 -0.02325,-0.01085 -0.02377,0.01085 z"
       sodipodi:nodetypes="csccccccccccssccscccccsccssccccccccccsccccc"
       inkscape:export-xdpi="97.097099"
       inkscape:export-ydpi="97.097099" />
    <path
       id="path861"
       style="fill:#962121;fill-opacity:1;stroke:none;stroke-width:0.1;stroke-miterlimit:4;stroke-dasharray:none;stop-color:#000000"
       d="m 31.809132,0.10623198 c 0,0 -0.224571,0.25978482 -0.3545,0.48420817 C 31.324703,0.81486351 31.171445,2.090607 31.171445,2.090607 l 0.01344,0.00103 a 0.55515253,0.52562315 0 0 0 -0.0021,0.040308 0.55515253,0.52562315 0 0 0 0.555522,0.5255493 0.55515253,0.52562315 0 0 0 0.555004,-0.5255493 0.55515253,0.52562315 0 0 0 -0.04961,-0.2165242 C 32.197135,1.5569457 32.092832,0.76395328 32.045294,0.60232573 31.986235,0.4015259 31.809132,0.10623198 31.809132,0.10623198 Z"
       inkscape:export-xdpi="97.097099"
       inkscape:export-ydpi="97.097099" />
    <circle
       style="fill:#5d4e14;fill-opacity:1;stroke:#000000;stroke-width:0.215971;stroke-miterlimit:4;stroke-dasharray:none;stroke-opacity:1;stop-color:#000000"
       id="path868"
       cx="53.956104"
       cy="9.8273802"
       r="4.4387398"
       inkscape:export-xdpi="97.097099"
       inkscape:export-ydpi="97.097099" />
    <path
       style="fill:none;stroke:#000000;stroke-width:0.142856px;stroke-linecap:butt;stroke-linejoin:miter;stroke-opacity:1"
       d="m 51.087438,12.007193 c 0,-0.02405 -0.0066,-0.04903 0,-0.07215 0.01133,-0.03962 0.192265,-0.236407 0.216459,-0.252537 0.01582,-0.01055 0.0389,-0.0066 0.05412,-0.01804 0.107919,-0.08094 0.192477,-0.194458 0.30665,-0.270574 0.06711,-0.04474 0.182738,-0.09764 0.234498,-0.162345 0.01188,-0.01485 0.0046,-0.04067 0.01804,-0.05411 0.01902,-0.01902 0.05027,-0.02045 0.07215,-0.03608 0.01731,-0.01236 0.186078,-0.159813 0.198421,-0.180383 0.05321,-0.08868 0.191077,-0.245192 0.270574,-0.324689 0.0095,-0.0095 0.02657,-0.0085 0.03608,-0.01804 0.04135,-0.04135 0.12174,-0.12773 0.144306,-0.180383 0.0071,-0.01658 -0.0081,-0.03798 0,-0.05411 0.0064,-0.01281 0.05936,-0.03493 0.07215,-0.05411 0.04063,-0.06095 0.08587,-0.119786 0.126267,-0.180383 0.01153,-0.01728 0.0179,-0.05398 0.03608,-0.07215 0.01091,-0.01091 0.06192,-0.03366 0.07215,-0.05411 0.0053,-0.01075 -0.0085,-0.027574 0,-0.036078 0.0043,-0.00427 0.01378,0.00427 0.01804,0 0.02041,-0.020409 -0.03054,-0.1277023 -0.03608,-0.1443063 -0.05517,-0.1655138 0.03705,0.092147 -0.07216,-0.1262647 -0.039,-0.078035 -0.08877,-0.30933 -0.108221,-0.3968633 -0.01929,-0.086817 -0.05478,-0.1656587 -0.07215,-0.2525361 -0.05423,-0.2711813 -0.113288,-0.5433424 -0.180383,-0.8117233 -0.006,-0.018038 -0.01203,-0.036076 -0.01804,-0.054115 -0.006,-0.00601 -0.01488,-0.010142 -0.01804,-0.018038 -0.04005,-0.1001212 -0.05482,-0.1906959 -0.108229,-0.2886127 -0.02076,-0.038064 -0.06365,-0.065713 -0.07215,-0.1082299 -0.01649,-0.082486 -0.0075,-0.2056172 0,-0.2886127 0.006,-0.06558 0.04492,-0.2016058 0.09019,-0.2525361 0.0312,-0.035099 0.07889,-0.053521 0.108229,-0.090191 0.02023,-0.025284 0.01869,-0.062874 0.03608,-0.090191 0.02522,-0.039619 0.06156,-0.071007 0.09019,-0.1082299 0.08927,-0.11605 0.166364,-0.2565571 0.270573,-0.3607658 0.102269,-0.1022694 0.190805,-0.1629052 0.324691,-0.2164596 0.02235,-0.00894 0.04938,-0.048421 0.07215,-0.054115 0.0175,-0.00437 0.03643,0.00354 0.05412,0 0.04241,-0.00848 0.08417,-0.043591 0.126268,-0.054115 0.02333,-0.00583 0.04843,0.00395 0.07215,0 0.04655,0.018653 0.07094,-0.028619 0.108229,-0.036076 0.163066,-0.032613 0.363613,-0.026583 0.523112,0 0.108788,0.018131 0.224564,-0.015337 0.324689,0.018038 0.05243,0.017478 0.131559,-0.024412 0.180382,0 0.07089,0.035445 0.154842,0.00211 0.234499,0.018039 0.08453,0.016906 0.305178,0.064054 0.378804,0.1082297 0.01458,0.00875 0.02131,0.027639 0.03608,0.036076 0.05377,0.030727 0.143711,0.048706 0.198421,0.072153 0.04244,0.01819 0.08525,0.072614 0.126268,0.090192 0.01658,0.00711 0.037,-0.0057 0.05411,0 0.0046,0.00153 0.106914,0.1592727 0.108229,0.1623445 0.01599,0.037319 0.0864,0.2382907 0.05412,0.2705745 -0.02484,0.024836 -0.07826,0.049677 -0.10823,0.072153 -0.04047,0.030351 -0.09789,0.1107949 -0.144306,0.126268 -0.04075,0.013583 -0.152936,-0.027447 -0.180383,0 -0.01625,0.016246 0.09773,0.2285717 0.108229,0.2705745 0.0099,0.039613 -0.0099,0.086655 0,0.1262681 0.01015,0.040597 0.02946,0.08658 0.03608,0.126268 0.02409,0.1445126 -0.03541,0.3092866 0,0.4509574 0.01199,0.04796 0.05089,0.1198255 0.07215,0.1623447 0.01804,0.036076 0.07215,0.054115 0.09019,0.090191 0.0027,0.00538 0,0.012026 0,0.018038 0.006,0.018039 0.0066,0.038903 0.01804,0.054115 0.0081,0.010755 0.02657,0.00853 0.03608,0.018038 0.02371,0.023715 0.05949,0.1243497 0.07215,0.1623447 0.01004,0.030112 0,0.075775 0,0.1082297 0,0.012672 0.0089,0.081247 0,0.090192 -0.0055,0.00549 -0.168939,0.0503 -0.180383,0.054115 -0.04468,0.014895 -0.109823,0.062337 -0.162344,0.036076 -0.02008,-0.010042 -0.121019,-0.030827 -0.126269,-0.036076 -0.0043,-0.00425 0.0043,-0.013787 0,-0.018038 -0.009,-0.00902 -0.04509,0.00902 -0.05411,0 -0.0043,-0.00425 0.006,-0.018038 0,-0.018038 -0.01203,0 0,0.024051 0,0.036076 0,0.048102 0,0.096204 0,0.1443063 0,0.1267197 0.02544,0.076325 0.05411,0.1623447 0.01804,0.054115 -0.009,0.018038 0,0.054115 0.01273,0.050896 0.03817,0.07842 0.05412,0.1262681 0.02488,0.074642 -10e-4,0.2025331 -0.01804,0.2705744 -0.0021,0.00825 -0.01598,0.00979 -0.01804,0.018038 -0.0044,0.0175 0.005,0.036771 0,0.054115 -0.02213,0.077466 -0.02805,0.068143 -0.07215,0.090191 -0.03093,0.015463 -0.0074,0.034995 -0.03608,0.054115 -0.09591,0.06394 -0.300337,0.072153 -0.414881,0.072153 -0.04884,0 -0.118236,0.014703 -0.162345,0 -0.0057,-0.00189 0.0043,-0.013784 0,-0.018039 -0.0085,-0.0085 -0.02757,0.0085 -0.03608,0 -0.0085,-0.0085 0.01076,-0.0307 0,-0.036078 -0.01076,-0.0054 -0.02467,0.00378 -0.03608,0 -0.03212,-0.010707 -0.04521,-0.076605 -0.09019,-0.054115 -0.0055,0.00274 -0.0013,0.1056876 0,0.1082295 0.01422,0.028433 0.126711,0.1506136 0.144306,0.1623446 0.02694,0.01796 0.06429,0.01665 0.09019,0.03608 0.02099,0.01574 0.04984,0.06788 0.07215,0.09019 0.03112,0.03112 0.06345,0.03649 0.09019,0.07215 0.03887,0.05183 0.06909,0.110158 0.10823,0.162345 0.0081,0.01075 0.01203,0.02405 0.01804,0.03608 0.006,0.01804 0.0066,0.0389 0.01804,0.05411 0.0081,0.01075 0.02801,0.0073 0.03608,0.01804 0.03904,0.05206 0.06083,0.139698 0.09019,0.198421 0.0038,0.0076 0.01203,0.01202 0.01804,0.01804 0.01203,0.01202 0.02847,0.02087 0.03608,0.03608 0.0081,0.01613 -0.01276,0.04136 0,0.05412 0.0095,0.0095 0.02657,0.0085 0.03608,0.01804 0.07307,0.07307 0.118522,0.200969 0.162345,0.288613 0.03421,0.06842 0.104532,0.134133 0.162344,0.180383 0.02738,0.0219 0.0654,0.02932 0.09019,0.05412 0.06974,0.06974 0.138301,0.240524 0.180384,0.324689 0.01908,0.03816 0.06976,0.09358 0.09019,0.126268 0.03758,0.06013 0.05372,0.143712 0.09019,0.198421 0.03998,0.05996 0.09248,0.09478 0.126267,0.162345 0.01042,0.02084 0.08167,0.09396 0.07215,0.10823 -0.02917,0.04375 -0.07264,0.0546 -0.10823,0.09019 -0.168172,0.168172 -0.0498,0.09903 -0.252537,0.270575 -0.123331,0.104357 -0.280943,0.181283 -0.41488,0.270574 -0.08967,0.05978 -0.380241,0.122947 -0.487034,0.144306 -0.01319,0.0026 -0.02405,0.01202 -0.03608,0.01804 -0.03608,0.01202 -0.07082,0.02928 -0.108229,0.03608 -0.121119,0.02202 -0.255984,-0.01024 -0.378804,0 -0.08356,0.007 -0.167671,0.02865 -0.252537,0.01804 -0.13417,-0.01677 -0.248701,-0.100247 -0.378804,-0.126268 -0.02948,-0.0059 -0.06028,0.003 -0.09019,0 -0.05739,0.03761 -0.08293,-0.02989 -0.126269,-0.03608 -0.05982,-0.0085 -0.120325,-0.01137 -0.180383,-0.01804 -0.0487,-0.0054 -0.114993,0.0068 -0.162344,0 -0.113102,-0.01616 -0.230937,-0.06535 -0.342728,-0.09019 -0.02348,-0.0052 -0.04882,0.0058 -0.07215,0 -0.07626,-0.01906 -0.145327,-0.07978 -0.21646,-0.10823 -0.01117,-0.0045 -0.02532,0.0054 -0.03608,0 -0.07187,-0.03594 -7.9e-5,-0.03609 -0.07215,-0.05411 -0.07288,-0.01822 -0.166563,-0.04773 -0.234498,-0.09019 -0.0255,-0.01593 -0.0439,-0.04384 -0.07215,-0.05412 -0.03995,-0.01453 -0.08563,-0.0055 -0.126267,-0.01804 -0.01776,-0.0055 -0.148498,-0.07653 -0.180383,-0.09019 -0.07552,-0.03236 -0.161276,-0.05358 -0.234499,-0.09019 -0.106124,-0.05306 -0.299264,-0.136921 -0.378804,-0.216459 -0.0043,-0.0043 0.0043,-0.01379 0,-0.01804 -0.0043,-0.0043 -0.01378,0.0043 -0.01804,0 -0.03822,-0.03822 -0.05116,-0.06625 -0.07215,-0.10823 -0.01243,-0.02486 -0.0423,-0.02426 -0.05412,-0.03608 -0.01344,-0.01344 -4.29e-4,-0.04705 -0.01804,-0.05411 -0.02846,-0.01139 -0.06013,-0.01202 -0.09019,-0.01804 z"
       id="path872"
       inkscape:export-xdpi="97.097099"
       inkscape:export-ydpi="97.097099" />
    <path
       style="fill:none;stroke:#000000;stroke-width:0.142856px;stroke-linecap:butt;stroke-linejoin:miter;stroke-opacity:1"
       d="m 50.091337,10.426866 c 0.09196,-0.03188 0.178728,-0.0766 0.267855,-0.114796 0.01993,-0.0085 0.04845,0.0026 0.06377,-0.01275 0.003,-0.003 -0.003,-0.0097 0,-0.01275 0.0079,-0.0079 0.04064,0.05339 0.05102,0.06377 0.04383,0.04383 0.08886,0.04896 0.15306,0.06377 0.05859,0.01352 0.118741,0.01953 0.17857,0.02551 0.02877,0.0029 0.11354,-0.02054 0.127551,-0.01275 0.01761,0.0098 0.11383,0.07621 0.15306,0.08928 0.06723,0.02241 0.196961,0.02851 0.267855,0.01275 0.130563,-0.02901 0.04637,-0.02551 0.127549,-0.02551"
       id="path878"
       inkscape:export-xdpi="97.097099"
       inkscape:export-ydpi="97.097099" />
    <path
       style="fill:none;stroke:#000000;stroke-width:0.142856px;stroke-linecap:butt;stroke-linejoin:miter;stroke-opacity:1"
       d="m 55.971393,10.796761 c 0.479261,-0.09111 0.201873,0.05601 0.53571,0.12755 0.05956,0.01276 0.2076,-0.04926 0.255099,-0.02551 0.04405,0.02202 0.06779,0.07854 0.114796,0.10204 0.01939,0.0097 0.04286,0.0071 0.06377,0.01276 0.08928,0.02435 0.163803,0.02551 0.255099,0.02551"
       id="path880"
       inkscape:export-xdpi="97.097099"
       inkscape:export-ydpi="97.097099" />
    <circle
       style="fill:url(#radialGradient900);fill-opacity:1;stroke:#000000;stroke-width:0.296764;stroke-miterlimit:4;stroke-dasharray:none;stroke-opacity:1;stop-color:#000000"
       id="circle884"
       cx="78.146584"
       cy="10.205357"
       r="6.0992365"
       inkscape:export-xdpi="97.097099"
       inkscape:export-ydpi="97.097099" />
    <path
       style="fill:none;stroke:#de4e35;stroke-width:0.765;stroke-linecap:butt;stroke-linejoin:miter;stroke-miterlimit:4;stroke-dasharray:0.765, 0.765;stroke-dashoffset:0;stroke-opacity:1"
       d="m 72.760417,9.6383927 c 0,0 2.36235,-2.6458332 3.968749,-2.456845 1.606399,0.1889879 2.312089,-0.3091804 3.779761,2.2678569 0.604717,1.0618024 1.173451,3.0242124 10e-7,4.6302084 -1.024915,1.40271 -3.118303,1.700892 -3.118303,1.700892"
       id="path904"
       sodipodi:nodetypes="csssc"
       inkscape:export-xdpi="97.097099"
       inkscape:export-ydpi="97.097099" />
    <rect
       style="fill:#de4e35;fill-opacity:1;stroke:none;stroke-width:0.567204;stroke-miterlimit:4;stroke-dasharray:none;stroke-dashoffset:0;stroke-opacity:1;stop-color:#000000"
       id="rect908"
       width="3.089385"
       height="1.5380423"
       x="56.769989"
       y="-54.259747"
       transform="matrix(0.62716327,0.77888782,-0.76484822,0.64421053,0,0)"
       inkscape:export-xdpi="97.097099"
       inkscape:export-ydpi="97.097099" />
    <rect
       style="fill:#e35318;fill-opacity:1;stroke:#000000;stroke-width:0.325621;stroke-miterlimit:4;stroke-dasharray:none;stroke-opacity:1;stop-color:#000000"
       id="rect1753"
       width="11.043197"
       height="13.656473"
       x="94.045815"
       y="2.1683865"
       inkscape:export-xdpi="96"
       inkscape:export-ydpi="96" />
    <path
       style="font-variation-settings:normal;opacity:1;vector-effect:none;fill:#e35318;fill-opacity:1;stroke:#000000;stroke-width:0.23641;stroke-linecap:butt;stroke-linejoin:miter;stroke-miterlimit:4;stroke-dasharray:none;stroke-dashoffset:0;stroke-opacity:1;stop-color:#000000;stop-opacity:1"
       d="M 92.157508,4.0566889 94.045813,2.1683865 V 15.82486 l -1.888305,1.888302 z"
       id="path1767"
       inkscape:export-xdpi="96"
       inkscape:export-ydpi="96" />
    <path
       style="fill:#e7e7e7;fill-opacity:1;stroke:#000000;stroke-width:0.22232px;stroke-linecap:butt;stroke-linejoin:miter;stroke-opacity:1"
       d="m 102.6616,17.72972 1.77857,-1.778567 V 3.088306 H 94.038736 L 92.260167,4.8668726 H 102.6616 Z"
       id="path1757"
       inkscape:export-xdpi="96"
       inkscape:export-ydpi="96" />
    <rect
       style="fill:#e35318;fill-opacity:1;stroke:#000000;stroke-width:0.325621;stroke-miterlimit:4;stroke-dasharray:none;stroke-opacity:1;stop-color:#000000"
       id="rect1755"
       width="11.043197"
       height="13.656473"
       x="92.157509"
       y="4.0566888"
       inkscape:export-xdpi="96"
       inkscape:export-ydpi="96" />
    <rect
       style="fill:#e9f03e;fill-opacity:1;stroke:#000000;stroke-width:0.325621;stroke-miterlimit:4;stroke-dasharray:none;stroke-opacity:1;stop-color:#000000"
       id="rect1794"
       width="11.043197"
       height="13.656473"
       x="119.50323"
       y="2.1683865"
       inkscape:export-xdpi="96"
       inkscape:export-ydpi="96" />
    <path
       style="font-variation-settings:normal;opacity:1;vector-effect:none;fill:#e9f03e;fill-opacity:1;stroke:#000000;stroke-width:0.23641;stroke-linecap:butt;stroke-linejoin:miter;stroke-miterlimit:4;stroke-dasharray:none;stroke-dashoffset:0;stroke-opacity:1;stop-color:#000000;stop-opacity:1"
       d="m 117.61493,4.0566889 1.88831,-1.8883024 V 15.82486 l -1.88831,1.888302 z"
       id="path1796"
       inkscape:export-xdpi="96"
       inkscape:export-ydpi="96" />
    <path
       style="fill:#e7e7e7;fill-opacity:1;stroke:#000000;stroke-width:0.22232px;stroke-linecap:butt;stroke-linejoin:miter;stroke-opacity:1"
       d="m 128.11902,17.72972 1.77857,-1.778567 V 3.088306 h -10.40143 l -1.77857,1.7785666 h 10.40143 z"
       id="path1798"
       inkscape:export-xdpi="96"
       inkscape:export-ydpi="96" />
    <rect
       style="fill:#e9f03e;fill-opacity:1;stroke:#000000;stroke-width:0.325621;stroke-miterlimit:4;stroke-dasharray:none;stroke-opacity:1;stop-color:#000000"
       id="rect1800"
       width="11.043197"
       height="13.656473"
       x="117.61493"
       y="4.0566888"
       inkscape:export-xdpi="96"
       inkscape:export-ydpi="96" />
    <rect
       style="fill:#12a934;fill-opacity:1;stroke:#000000;stroke-width:0.325621;stroke-miterlimit:4;stroke-dasharray:none;stroke-opacity:1;stop-color:#000000"
       id="rect1802"
       width="11.043197"
       height="13.656473"
       x="142.95613"
       y="1.901117"
       inkscape:export-xdpi="96"
       inkscape:export-ydpi="96" />
    <path
       style="font-variation-settings:normal;opacity:1;vector-effect:none;fill:#12a934;fill-opacity:1;stroke:#000000;stroke-width:0.23641;stroke-linecap:butt;stroke-linejoin:miter;stroke-miterlimit:4;stroke-dasharray:none;stroke-dashoffset:0;stroke-opacity:1;stop-color:#000000;stop-opacity:1"
       d="M 141.06783,3.7894194 142.95614,1.901117 V 15.55759 l -1.88831,1.888302 z"
       id="path1804"
       inkscape:export-xdpi="96"
       inkscape:export-ydpi="96" />
    <path
       style="fill:#e7e7e7;fill-opacity:1;stroke:#000000;stroke-width:0.22232px;stroke-linecap:butt;stroke-linejoin:miter;stroke-opacity:1"
       d="m 151.57192,17.46245 1.77857,-1.778567 V 2.8210365 h -10.40143 l -1.77857,1.7785666 h 10.40143 z"
       id="path1806"
       inkscape:export-xdpi="96"
       inkscape:export-ydpi="96" />
    <rect
       style="fill:#12a934;fill-opacity:1;stroke:#000000;stroke-width:0.325621;stroke-miterlimit:4;stroke-dasharray:none;stroke-opacity:1;stop-color:#000000"
       id="rect1808"
       width="11.043197"
       height="13.656473"
       x="141.06783"
       y="3.7894192"
       inkscape:export-xdpi="96"
       inkscape:export-ydpi="96" />
    <rect
       style="fill:#4d4bd7;fill-opacity:1;stroke:#000000;stroke-width:0.325621;stroke-miterlimit:4;stroke-dasharray:none;stroke-opacity:1;stop-color:#000000"
       id="rect1810"
       width="11.043197"
       height="13.656473"
       x="166.80994"
       y="1.3665779"
       inkscape:export-xdpi="96"
       inkscape:export-ydpi="96" />
    <path
       style="font-variation-settings:normal;opacity:1;vector-effect:none;fill:#4d4bd7;fill-opacity:1;stroke:#000000;stroke-width:0.23641;stroke-linecap:butt;stroke-linejoin:miter;stroke-miterlimit:4;stroke-dasharray:none;stroke-dashoffset:0;stroke-opacity:1;stop-color:#000000;stop-opacity:1"
       d="m 164.92164,3.2548803 1.88831,-1.8883024 V 15.023051 l -1.88831,1.888302 z"
       id="path1812"
       inkscape:export-xdpi="96"
       inkscape:export-ydpi="96" />
    <path
       style="fill:#e7e7e7;fill-opacity:1;stroke:#000000;stroke-width:0.22232px;stroke-linecap:butt;stroke-linejoin:miter;stroke-opacity:1"
       d="m 175.42573,16.927911 1.77857,-1.778567 V 2.2864974 H 166.80287 L 165.0243,4.065064 h 10.40143 z"
       id="path1814"
       inkscape:export-xdpi="96"
       inkscape:export-ydpi="96" />
    <rect
       style="fill:#4d4bd7;fill-opacity:1;stroke:#000000;stroke-width:0.325621;stroke-miterlimit:4;stroke-dasharray:none;stroke-opacity:1;stop-color:#000000"
       id="rect1816"
       width="11.043197"
       height="13.656473"
       x="164.92163"
       y="3.2548802"
       inkscape:export-xdpi="96"
       inkscape:export-ydpi="96" />
    <text
       xml:space="preserve"
       style="font-size:10.5833px;line-height:1.25;font-family:'Reem Kufi';-inkscape-font-specification:'Reem Kufi';stroke-width:0.264583"
       x="94.680229"
       y="10.95805"
       id="text1820"><tspan
         sodipodi:role="line"
         id="tspan1818"
         x="94.680229"
         y="10.95805"
         style="stroke-width:0.264583" /></text>
    <text
       xml:space="preserve"
       style="font-size:7.46269px;line-height:1.25;font-family:'Reem Kufi';-inkscape-font-specification:'Reem Kufi';stroke-width:0.399786"
       x="92.942856"
       y="12.858721"
       id="text1824"
       inkscape:export-xdpi="96"
       inkscape:export-ydpi="96"><tspan
         sodipodi:role="line"
         id="tspan1822"
         x="92.942856"
         y="12.858721"
         style="font-size:7.46269px;stroke-width:0.399786">1+1</tspan></text>
    <g
       id="g1867"
       inkscape:export-xdpi="96"
       inkscape:export-ydpi="96">
      <path
         id="rect1832"
         style="font-variation-settings:normal;opacity:1;vector-effect:none;fill:#e6e6cc;fill-opacity:1;stroke:#000000;stroke-width:0.133011;stroke-linecap:butt;stroke-linejoin:miter;stroke-miterlimit:4;stroke-dasharray:none;stroke-dashoffset:0;stroke-opacity:1;stop-color:#000000;stop-opacity:1"
         d="m 120.74495,8.338574 -0.0242,0.044003 c -0.17268,0.00635 -0.33924,0.063629 -0.45175,0.180857 -0.14911,0.1553537 -0.14694,0.397806 0.0643,0.519072 h 0.0153 V 13.83202 l -0.0958,2.29e-4 -0.0263,0.03225 c 0.1453,0.129535 0.13235,0.335175 3e-4,0.472763 -0.13021,0.135668 -0.3328,0.189676 -0.53352,0.178553 l -0.0257,0.03134 4.53088,0.01497 0.0242,-0.044 c 0.17267,-0.0064 0.33925,-0.06363 0.45175,-0.180858 0.1321,-0.137631 0.14463,-0.343237 -8.5e-4,-0.472763 h 0.0172 V 9.0684474 l 0.0263,-0.03225 c -0.14531,-0.129535 -0.13234,-0.3351751 -2.9e-4,-0.4727629 0.13021,-0.1356681 0.33279,-0.1896769 0.53351,-0.1785533 l 0.0257,-0.031336 z" />
      <path
         style="fill:none;stroke:#000000;stroke-width:0.264583px;stroke-linecap:butt;stroke-linejoin:miter;stroke-opacity:1"
         d="m 120.71614,9.3194753 c 0.16761,-0.083804 0.1541,-0.089147 0.36617,-0.1299292 0.13381,-0.025733 0.27181,0.044912 0.4016,0.07087 0.12023,0.024045 0.24506,0.05357 0.36616,0.07087 0.0234,0.00334 0.0477,-0.00463 0.0709,0 0.0173,0.00345 0.0302,0.019354 0.0473,0.023625 0.0395,0.00987 0.34423,0.00614 0.37798,0 0.0208,-0.00379 0.0386,-0.018161 0.0591,-0.023625 0.38216,-0.076432 -0.0476,0.016978 0.17717,-0.047247 0.0189,-0.00541 0.0396,0.00324 0.0591,0 0.14739,-0.024567 0.28859,0.00507 0.43704,0.023625 0.0576,0.0072 0.13228,0.00945 0.18898,0.023622 0.0171,0.00427 0.0305,0.018055 0.0472,0.023625 0.13857,0.046189 0.43252,0.032706 0.57878,0.011811 0.0243,-0.00347 0.12993,-0.00869 0.12993,0.011811"
         id="path1849" />
      <path
         style="fill:none;stroke:#000000;stroke-width:0.264583px;stroke-linecap:butt;stroke-linejoin:miter;stroke-opacity:1"
         d="m 120.83426,10.217169 c 0.0438,-0.0022 0.36145,-0.02202 0.42522,-0.01181 0.0383,0.0061 0.069,0.03687 0.10631,0.04725 0.0162,0.0045 0.2334,0.02335 0.23624,0.02362 0.20912,0.01992 0.42761,0.02057 0.63783,0.01181 0.0709,-0.003 0.14198,-0.0047 0.21261,-0.01181 0.0361,-0.0036 0.0703,-0.01912 0.10631,-0.02362 0.0759,-0.0095 0.15974,0 0.23623,0 0.0843,0 0.177,-0.0087 0.25986,0 0.1472,0.01549 0.29374,0.0941 0.43704,0.129929 0.15344,0.03836 0.30531,0.03964 0.46065,0.05906 0.12438,0.01555 -0.0508,0.01181 0.0709,0.01181"
         id="path1851" />
      <path
         style="fill:none;stroke:#000000;stroke-width:0.264583px;stroke-linecap:butt;stroke-linejoin:miter;stroke-opacity:1"
         d="m 120.96419,11.315662 c 0.0437,-0.02621 0.0869,-0.05906 0.14174,-0.05906 0.23621,0 0.57918,0.07216 0.79139,0.09449 0.0587,0.0062 0.11827,-0.0042 0.17718,0 0.0516,0.0037 0.10216,0.0172 0.15355,0.02363 0.11381,0.01423 0.22889,0.0192 0.34254,0.03543 0.0311,0.0044 0.11265,0.01393 0.14174,0.02363 0.0236,0.0079 0.0355,0.02757 0.0591,0.03543 0.0465,0.01551 0.10466,0.03136 0.15355,0.03543 0.1192,0.0099 0.25887,0.01083 0.37798,0 0.34225,-0.03111 -7.9e-4,-0.01833 0.3071,-0.03543 0.0795,-0.0044 0.15629,-0.01181 0.23624,-0.01181 0.061,0 0.14038,0.01208 0.2008,0 0.005,-0.0011 0.008,-0.0079 0.0118,-0.01181"
         id="path1853" />
      <path
         style="fill:none;stroke:#000000;stroke-width:0.264583px;stroke-linecap:butt;stroke-linejoin:miter;stroke-opacity:1"
         d="m 120.88151,12.189732 c 0.16812,-0.03996 0.33446,-0.09296 0.5079,-0.106306 0.22199,-0.01708 0.43106,0.03919 0.64965,0.05906 0.14545,0.01322 0.30236,0.01776 0.44885,0.02362 0.21146,0.0085 0.42632,0 0.63783,0 0.11243,0 0.23047,0.0093 0.34254,0 0.0746,-0.0062 0.15051,-0.01834 0.22443,-0.02362 0.12846,-0.0092 0.2607,0 0.38979,0"
         id="path1857" />
      <path
         style="fill:none;stroke:#000000;stroke-width:0.264583px;stroke-linecap:butt;stroke-linejoin:miter;stroke-opacity:1"
         d="m 120.76339,13.300037 c 0.45672,-0.207619 0.41419,-0.03236 0.82682,0 0.19626,0.01539 0.39384,0.0066 0.59059,0 0.14208,-0.0047 0.085,-0.01511 0.21261,-0.02362 0.17845,-0.0119 0.36375,-0.02304 0.54335,-0.01181 0.0753,0.0047 0.15008,0.024 0.22442,0.03543 0.11419,0.01757 0.22721,0.02363 0.34254,0.02363 0.0253,0 0.0925,0.01025 0.11812,0 0.0329,-0.01318 0.0815,-0.04605 0.1063,-0.07087"
         id="path1859" />
    </g>
    <g
       id="g1923"
       transform="matrix(0.68770214,0,0,0.68770214,46.508462,-9.0854266)"
       inkscape:export-xdpi="96"
       inkscape:export-ydpi="96">
      <circle
         style="font-variation-settings:normal;opacity:1;vector-effect:none;fill:#20ecec;fill-opacity:1;stroke:#000000;stroke-width:0.264999;stroke-linecap:butt;stroke-linejoin:miter;stroke-miterlimit:4;stroke-dasharray:none;stroke-dashoffset:0;stroke-opacity:1;stop-color:#000000;stop-opacity:1"
         id="path1869"
         cx="145.59506"
         cy="28.397385"
         r="5.0113039" />
      <path
         id="path1873"
         style="font-variation-settings:normal;opacity:1;vector-effect:none;fill:#d0d5d5;fill-opacity:1;stroke:none;stroke-width:0.999999px;stroke-linecap:butt;stroke-linejoin:miter;stroke-miterlimit:4;stroke-dasharray:none;stroke-dashoffset:0;stroke-opacity:1;stop-color:#000000;stop-opacity:1"
         d="m 550.88672,119.45898 c -0.41894,0.0165 -0.83605,0.0484 -1.24414,0.0937 -0.21536,0.024 -0.41032,0.14908 -0.625,0.17969 -0.31884,0.0456 -0.66268,-0.0321 -0.98242,0 -0.88952,0.089 -1.77231,0.27835 -2.67774,0.17774 -0.68028,-0.0756 -1.37566,-0.18269 -2.05469,-0.26758 -0.48177,-0.0602 -1.03311,0 -1.51757,0 -1.77646,0 -3.62999,0.006 -5.35743,0.44726 -0.0376,0.01 -0.0739,0.0232 -0.11132,0.0332 a 18.940361,18.940361 0 0 0 13.96484,6.14648 18.940361,18.940361 0 0 0 11.16406,-3.64258 c -0.0958,-0.0709 -0.18365,-0.15335 -0.28515,-0.21679 -0.99753,-0.62332 -0.0505,0.11074 -1.25,-0.53516 -0.29878,-0.16088 -0.50831,-0.45666 -0.80274,-0.625 -0.17408,-0.0995 -0.97912,-0.28501 -1.16015,-0.35742 -0.22277,-0.0891 -0.4005,-0.27314 -0.625,-0.35742 -0.14219,-0.0534 -0.30327,-0.0399 -0.44727,-0.0879 -1.58287,-0.52763 1.07063,0.20459 -0.80273,-0.35743 -0.34776,-0.10427 -0.73325,-0.0949 -1.07227,-0.17968 -0.31098,-0.0778 -0.57737,-0.30013 -0.89258,-0.35743 -0.24189,-0.044 -1.75168,-0.0765 -1.96484,-0.0879 -0.41615,-0.0219 -0.83692,-0.0223 -1.25586,-0.006 z"
         transform="scale(0.26458333)" />
      <path
         id="path1871"
         style="fill:#d0d5d5;fill-opacity:1;stroke:none;stroke-width:0.999999px;stroke-linecap:butt;stroke-linejoin:miter;stroke-opacity:1"
         d="m 550.17188,88.388672 a 18.940361,18.940361 0 0 0 -9.88477,2.851562 c 0.0805,0.0859 0.14589,0.141138 0.24805,0.277344 0.0892,0.208328 0.13756,0.439312 0.26757,0.625 0.30161,0.430851 1.98531,1.308781 2.58985,1.429688 0.0873,0.01739 0.17989,-0.01739 0.26758,0 0.80761,0.161537 -0.24109,0.0075 0.26953,0.177734 0.28233,0.09415 0.68699,-0.04891 0.98047,0 0.33978,0.05666 0.72492,0.108267 1.07226,0.177734 0.86204,0.172422 -0.73123,0.01131 0.44727,0.179688 0.63915,0.09131 0.0761,-0.122452 0.71289,0.08984 0.61871,0.206248 1.30581,0.542625 1.96484,0.625 0.71883,0.08988 1.43025,0.253723 2.14258,0.355468 0.42369,0.06051 0.83418,-0.05327 1.25,-0.08789 0.96737,-0.08062 1.97396,0 2.94727,0 0.85984,0 1.74248,0.05106 2.58789,-0.08984 0.29178,-0.04864 0.51646,-0.17891 0.80468,-0.267578 0.45313,-0.139427 0.90108,-0.181939 1.33985,-0.357422 0.336,-0.134362 0.65327,-0.316388 0.98047,-0.447266 0.0552,-0.02192 0.12261,0.01625 0.17968,0 0.4015,-0.114708 0.98189,-0.474266 1.33985,-0.71289 0.0423,-0.02824 0.0746,-0.06977 0.11133,-0.105469 a 18.940361,18.940361 0 0 0 -12.50977,-4.720703 18.940361,18.940361 0 0 0 -0.10937,0 z"
         transform="scale(0.26458333)" />
      <path
         style="fill:#229713;fill-opacity:1;stroke:none;stroke-width:0.264583px;stroke-linecap:butt;stroke-linejoin:miter;stroke-opacity:1"
         d="m 142.16629,25.489769 c -0.0534,0.06718 -0.12928,0.0037 -0.18899,0.02363 -0.028,0.0093 -0.0443,0.05759 -0.0709,0.07087 -0.0141,0.007 -0.0361,-0.01114 -0.0472,0 -0.006,0.0056 0.006,0.01806 0,0.02362 -0.0109,0.01092 -0.0566,-0.0071 -0.0709,0 -0.0762,0.03811 -0.11812,0.111171 -0.11812,0.212612 0,0.01442 -0.009,0.08529 0,0.09449 0.002,0.0016 0.0634,0.04352 0.0709,0.04725 0.0141,0.007 0.0361,-0.01114 0.0472,0 0.0489,0.04888 -0.0747,-0.0019 0.0236,0.04725 0.0282,0.01407 0.0968,0.02591 0.11812,0.04725 0.006,0.0056 -0.006,0.01806 0,0.02362 0.0125,0.01245 0.0348,0.01117 0.0472,0.02363 0.0264,0.0264 0.0681,0.09172 0.0945,0.118118 0.0413,0.0413 0.15945,0.03544 0.18898,0.09449 0.0268,0.05354 0.0439,0.111341 0.0709,0.165366 0.0496,0.0991 -0.0496,0.373229 0,0.472469 0.0199,0.03976 0.0236,0.04592 0.0236,0.09449 0,0.05626 -0.0134,0.135541 0,0.18899 0.005,0.02058 0.0421,0.07392 0.0472,0.09449 0.0121,0.04842 -0.0218,0.121751 0,0.165364 0.004,0.007 0.0211,-0.0075 0.0236,0 0.007,0.02241 -0.009,0.04894 0,0.07087 0.008,0.02069 0.0373,0.02733 0.0472,0.04725 0.03,0.05993 0.0379,0.193858 0.0709,0.259858 0.004,0.007 0.0181,-0.0056 0.0236,0 0.015,0.01498 -0.01,0.07483 0,0.0945 0.0378,0.07557 0.13302,0.369255 0.16536,0.401598 0.0125,0.01246 0.0348,0.01116 0.0472,0.02363 0.006,0.006 0.0272,0.219721 0.0472,0.259858 0.0299,0.05981 -0.0505,0.07412 -0.0709,0.09449 -0.006,0.0056 0.006,0.01807 0,0.02363 -0.0167,0.0167 -0.0485,-0.0075 -0.0709,0 -0.0737,0.02458 0.008,0.01574 -0.0236,0.04725 -0.006,0.0056 -0.0166,-0.0035 -0.0236,0 -0.0754,0.03773 -0.11085,0.127217 -0.14174,0.18899 -0.0228,0.04561 0.0202,0.414999 0.0472,0.496093 0.0367,0.110022 -0.019,0.264033 0,0.377976 0.0346,0.20737 0.009,-0.03611 0.0473,0.118118 0.009,0.03541 -0.0115,0.08352 0,0.118118 0.009,0.02798 0.0576,0.0443 0.0709,0.07087 0.0221,0.04421 0.0185,0.08422 0.0472,0.141742 0.0221,0.04415 0.0562,0.0651 0.0709,0.09449 0.0596,0.119295 0.18255,0.176114 0.23623,0.283482 0.0366,0.07318 0.14476,0.245295 0.16537,0.307105 0.0107,0.032 0.005,0.06652 0.0236,0.0945 0.0124,0.01852 0.0373,0.02733 0.0473,0.04725 0.007,0.01408 -0.009,0.03414 0,0.04725 0.01,0.01466 0.0326,0.01386 0.0472,0.02363 0.008,0.0079 0.0157,0.01574 0.0236,0.02363 0,0.0079 -0.006,0.01804 0,0.02363 0.004,0.0037 0.0908,0.0037 0.0945,0 0.0225,-0.02249 -0.0143,-0.353587 0,-0.425225 0.008,-0.03871 0.11863,-0.283996 0.14174,-0.307105 0.006,-0.0056 0.0201,0.007 0.0236,0 0.0105,-0.02114 -0.0167,-0.05416 0,-0.07087 0.006,-0.0056 0.018,0.0056 0.0236,0 0.0569,-0.05689 0.0212,-0.218419 0.0472,-0.283483 0.0539,-0.134779 0.0365,-0.01492 0.0709,-0.118118 0.0208,-0.06244 0.0188,-0.155718 0.0472,-0.212611 0.01,-0.01992 0.0373,-0.02733 0.0473,-0.04725 0.0238,-0.04763 -0.002,-0.138382 0.0236,-0.188986 0.004,-0.007 0.018,0.0056 0.0236,0 0.0201,-0.02014 -0.007,-0.139327 0,-0.165365 0.0172,-0.06901 0.0587,-0.449506 0.0236,-0.519718 -0.0385,-0.07701 -0.0754,-0.0754 -0.11812,-0.118118 -0.0125,-0.01246 -0.0112,-0.03479 -0.0236,-0.04725 -0.0181,-0.01812 -0.0744,-0.01355 -0.0945,-0.02363 -0.007,-0.0035 0,-0.01574 0,-0.02363 -0.0157,-0.0079 -0.0305,-0.01805 -0.0472,-0.02363 -0.0421,-0.01405 -0.1037,-0.0046 -0.14174,-0.02363 -0.0136,-0.0068 -0.10952,-0.0859 -0.11812,-0.0945 -0.0236,-0.02357 -0.01,-0.100671 -0.0236,-0.14174 -0.015,-0.04495 -0.0429,-0.107452 -0.0236,-0.165364 0.0142,-0.04273 0.0982,-0.19086 0.14174,-0.212612 0.0274,-0.01368 0.068,-0.01037 0.0945,-0.02363 0.0374,-0.01871 0.0786,-0.07863 0.0945,-0.09449 0.005,-0.0045 0.20959,-0.0739 0.23623,-0.04725 0.013,0.01299 0.0274,0.196527 0.0472,0.236236 0.0346,0.06918 0.18196,0.05428 0.21261,0.02363 0.0109,-0.01093 -0.007,-0.05661 0,-0.07087 0.0174,-0.03478 0.0314,-0.03134 0.0472,-0.04725 0.0223,-0.02228 -0.006,-0.06361 0,-0.09449 0.009,-0.04661 0.0321,-0.09637 0.0473,-0.14174 0.005,-0.01495 -0.0111,-0.03611 0,-0.04725 0.006,-0.0056 0.0201,0.007 0.0236,0 0.0136,-0.02716 0.0139,-0.336283 0,-0.377976 -0.0244,-0.07315 -0.0379,-0.06152 -0.0709,-0.09449 -0.0133,-0.01334 0.006,-0.07562 0,-0.09449 -0.005,-0.01431 -0.0225,-0.164262 -0.0236,-0.165365 -0.022,-0.02201 -0.0236,0.0019 -0.0236,-0.04725 0,-0.0315 -0.002,-0.37592 0,-0.377978 0.0213,-0.02125 0.0921,-0.04482 0.11812,-0.07087 0.0424,-0.04241 0.0411,-0.113297 0.0709,-0.165366 0.0111,-0.01934 0.0349,-0.02871 0.0473,-0.04725 0.0206,-0.03096 0.0121,-0.0837 0.0236,-0.118117 0.0474,-0.142199 0.23934,-0.463141 0.18898,-0.614211 -0.0105,-0.03169 -0.27533,-0.07087 -0.3071,-0.07087 -0.0563,0 -0.0999,-0.04027 -0.14174,-0.04725 -0.22792,0 -0.0417,0.01761 -0.16537,-0.02362 -0.10928,-0.03643 -0.51112,-0.0017 -0.63783,0.02362 -0.0856,0.01712 -0.19563,0 -0.28349,0 -0.28438,0 -0.59482,-0.03223 -0.87407,0.02363 z"
         id="path1900" />
      <path
         style="fill:#229713;fill-opacity:1;stroke:none;stroke-width:0.264583px;stroke-linecap:butt;stroke-linejoin:miter;stroke-opacity:1"
         d="m 145.04836,25.22991 c -0.0206,0.100086 0.0353,0.187625 0.0472,0.283483 0.001,0.011 -0.01,0.111661 0,0.141741 0.009,0.02693 0.0383,0.04394 0.0473,0.07087 0.005,0.01494 -0.007,0.03316 0,0.04725 0.004,0.007 0.0157,0 0.0236,0 0.008,0.0079 0.0187,0.01366 0.0236,0.02363 0.0257,0.0514 0.0355,0.112233 0.0945,0.141741 0.0888,0.04439 0.31,-0.01671 0.4016,-0.04725 0.0647,-0.02156 0.17158,0.01121 0.21262,-0.07087 0.0387,-0.07739 0.0418,-0.317985 0,-0.401599 -0.0223,-0.04456 -0.088,-0.02714 -0.11812,-0.04725 -0.0863,-0.05755 0.0253,-0.03458 -0.0472,-0.07087 -0.10405,-0.05203 -0.1098,-0.02085 -0.18899,-0.04725 -0.16581,-0.05527 -0.32033,-0.111505 -0.49609,-0.02362 z"
         id="path1902" />
      <path
         id="path1906"
         style="fill:#229713;fill-opacity:1;stroke:none;stroke-width:0.999999px;stroke-linecap:butt;stroke-linejoin:miter;stroke-opacity:1"
         d="m 564.50977,94.826172 c -0.066,0.03226 -0.1355,0.0617 -0.22461,0.08398 -0.13304,0.581144 -2.61637,0.921037 -3.21289,1.517578 -0.0227,0.02117 0.0227,0.06883 0,0.08984 -0.0518,0.05174 -0.30565,0.127908 -0.35743,0.179688 -0.0419,0.0421 0.042,0.13563 0,0.177734 -0.0665,0.06656 -0.20105,0.02325 -0.26757,0.08984 -0.0472,0.04706 -0.043,0.130679 -0.0898,0.177734 -0.21316,0.21309 -0.64561,0.198342 -0.80469,0.357422 -0.0892,0.08931 10e-4,0.357963 -0.0879,0.447266 -0.18482,0.184743 0.007,-0.283675 -0.17968,0.08789 -0.0189,0.03666 -0.0265,0.422257 0,0.447266 0.0189,0.01852 0.8276,0.267578 0.89257,0.267578 0.068,0 0.39621,-0.05106 0.44727,0 0.27364,0.273713 0.0432,1.650512 0.17773,1.785162 0.034,0.0348 0.303,0 0.35743,0 0.0688,0 0.31811,0.0261 0.35742,0 0.0556,-0.037 0.043,-0.13068 0.0898,-0.17774 0.28989,-0.28989 0.73409,-0.636589 1.07031,-0.804688 0.2744,-0.137159 -0.14648,-0.05007 0.17969,-0.267578 0.0495,-0.03288 0.12444,0.02646 0.17774,0 0.10696,-0.05356 0.16024,-0.214022 0.26757,-0.267578 0.0378,-0.01814 0.42225,-0.02495 0.44727,0 0.0378,0.03666 0.24339,0.261611 0.26758,0.357422 0.0386,0.154658 0.0892,0.893892 0,1.072272 -0.24983,0.49951 -0.67071,0.72943 -1.16016,0.89257 -0.11981,0.0399 -0.15041,0.22068 -0.26758,0.26758 -0.0828,0.0333 -0.18298,-0.0215 -0.26953,0 -0.10393,0.0261 -0.16326,0.1517 -0.26758,0.17774 -0.28837,0.0721 -3.27226,0.2191 -3.66015,0.0898 -0.0401,-0.0132 -0.0486,-0.0815 -0.0898,-0.0898 -0.14589,-0.0291 -0.31219,0.0666 -0.44531,0 -0.24945,-0.12469 -0.52451,-0.17419 -0.80469,-0.26758 -0.45516,0.12087 -0.0662,-0.12184 -0.17773,-0.17774 -0.0797,-0.0399 -0.22752,0.0799 -0.26758,0 -0.0265,-0.0532 0.0265,-0.12643 0,-0.17968 -0.0265,-0.0532 -0.12677,0.0264 -0.17969,0 -0.37152,-0.18581 0.0965,0.007 -0.0879,-0.17774 -0.11074,-0.11078 -0.48614,-0.19815 -0.625,-0.26758 -0.46333,-0.23164 -1.7561,-0.59721 -2.05468,0 -0.0378,0.0741 0,0.2728 0,0.35743 0,0.1104 -0.0586,0.44708 0,0.53515 0.2793,0.41921 1.04088,0.68151 1.42968,1.07031 0.0692,0.0691 -0.36852,0.70256 -0.625,0.98243 -0.0189,0.4174 -0.44396,0.26623 -0.625,0.44726 -0.0665,0.0665 -0.0384,0.18927 -0.0898,0.26758 -0.19087,0.28641 -0.26758,0.357 -0.26758,0.71484 0,0.11906 -0.0843,0.27326 0,0.35743 0.20561,0.2056 0.74223,0.0177 0.98242,0.17773 0.0556,0.037 0.0327,0.14081 0.0879,0.17773 0.26797,0.17859 0.0908,-0.0893 0.26954,0 0.60381,0.30191 1.16111,-0.0454 1.60546,-0.26757 0.0907,-0.0453 0.35312,-0.44119 0.44727,-0.53516 0.0586,-0.0585 0.20597,-0.0546 0.26758,-0.17773 0.0151,-0.0265 -0.0227,-0.0688 0,-0.0898 0.18444,-0.18444 0.94752,-0.21748 1.25,-0.17969 0.0692,0.009 1.00582,0.11325 1.07226,0.17969 0.0227,0.0212 -0.0227,0.0719 0,0.0898 0.33222,0.2491 0.60824,0.23599 0.80274,0.625 0.1149,0.22994 -0.0898,1.60097 -0.0898,1.96289 0,0.42839 -0.31786,0.60044 -0.44531,0.98242 -0.0488,0.14596 -0.23254,0.35742 -0.17773,0.35742 0.0419,0 0.0471,-0.0796 0.0879,-0.0898 0.0866,-0.0216 0.18103,0.0215 0.26758,0 0.2211,-0.0552 1.03904,-0.64647 1.16211,-0.89258 0.0151,-0.0265 -0.0227,-0.0687 0,-0.0898 0.0227,-0.0212 0.0747,0.0265 0.0879,0 0.0264,-0.0532 -0.034,-0.12818 0,-0.17773 0.0378,-0.0554 0.13282,-0.0427 0.17968,-0.0898 0.0265,-0.0268 0.32341,-0.46696 0.35743,-0.53516 0.0264,-0.0532 -0.042,-0.13758 0,-0.17969 0.0227,-0.0212 0.058,0 0.0879,0 0.0593,-0.0299 0.13962,-0.0349 0.17968,-0.0879 0.0764,-0.10178 0.12256,-0.33672 0.17774,-0.44726 0.0563,-0.11294 0.19728,-0.16251 0.26758,-0.26758 0.034,-0.0495 -0.042,-0.13563 0,-0.17774 0.0227,-0.0212 0.0736,0.025 0.0898,0 0.068,-0.10212 0.004,-0.27064 0.0898,-0.35742 0.0227,-0.0212 0.0667,0.0212 0.0879,0 0.0631,-0.0631 -0.0401,-0.18771 0,-0.26758 0.0151,-0.0287 0.92449,-0.32746 1.07227,-0.17968 0.0227,0.0212 -0.0227,0.0688 0,0.0898 0.0661,0.0662 0.24668,-0.021 0.35742,0.0898 0.0227,0.0212 -0.0227,0.0668 0,0.0879 0.0419,0.0421 0.12785,-0.0329 0.17774,0 0.0699,0.0467 0.10447,0.14205 0.17968,0.17969 0.0533,0.0265 0.12785,-0.0329 0.17774,0 0.14286,0.0952 0.10317,0.18549 0.26758,0.26758 0.13757,0.0688 0.38596,0.0141 0.53711,0.0898 0.11943,0.0597 0.23912,0.22026 0.35742,0.26758 0.0828,0.0333 0.18291,-0.0283 0.26758,0 0.12623,0.0421 0.23836,0.11821 0.35742,0.17774 0.0692,0.0348 0.7734,0.50776 0.80273,0.53711 0.0446,0.0446 0.0452,0.13309 0.0898,0.17773 0.0302,0.0299 0.23772,0.06 0.26757,0.0898 0.0472,0.047 0.0347,0.14081 0.0899,0.17774 0.099,0.066 0.24888,-0.0532 0.35547,0 0.0264,0.0132 -0.0227,0.0687 0,0.0898 0.15836,0.15848 0.6024,0.13726 0.80468,0.17774 0.0929,0.0186 0.27593,0.15482 0.37696,0.22265 a 18.940361,18.940361 0 0 0 0.004,-0.30469 18.940361,18.940361 0 0 0 -4.71093,-12.50195 z"
         transform="scale(0.26458333)" />
      <path
         style="fill:#229713;fill-opacity:1;stroke:none;stroke-width:0.264583px;stroke-linecap:butt;stroke-linejoin:miter;stroke-opacity:1"
         d="m 147.17448,29.104166 c -0.0923,0 -0.31761,-0.01225 -0.42523,0.02363 -0.0317,0.01056 -0.32238,0.227885 -0.35435,0.259857 -0.009,0.0092 -0.0473,0.292794 -0.0473,0.33073 0,0.05643 0.17658,0.271068 0.21262,0.307104 0.11424,0.114247 0.0573,0.04044 0.16536,0.0945 0.0685,0.03424 0.2349,0.280802 0.25986,0.330729 0.007,0.01408 -0.004,0.03197 0,0.04725 0.0285,0.114075 0.0112,-0.0011 0.0472,0.07087 0.0217,0.0434 0.003,0.123729 0.0236,0.165364 0.0303,0.06059 0.0511,0.129551 0.0709,0.188989 0.045,0.135131 -0.0636,0.408874 0.0472,0.519719 0.006,0.0056 0.0181,-0.0056 0.0236,0 0.0203,0.02027 0.0129,0.07734 0.0472,0.09449 0.0584,0.02921 0.19532,0.02679 0.23623,0.04725 0.0786,0.03928 0.17228,0.02919 0.25986,0 0.015,-0.005 0.0361,0.01114 0.0473,0 0.006,-0.0056 -0.006,-0.01805 0,-0.02363 0.0118,-0.01183 0.079,-0.0081 0.0945,-0.02363 0.0299,-0.02989 0.061,-0.08461 0.0945,-0.118118 0.006,-0.0056 0.018,0.0056 0.0236,0 0.021,-0.02096 0.009,-0.06602 0.0236,-0.09449 0.0492,-0.09832 -0.002,0.02524 0.0473,-0.02363 0.0109,-0.01093 -0.007,-0.05661 0,-0.07087 0.0138,-0.02752 0.0335,-0.04335 0.0472,-0.07087 0.0205,-0.04089 0.003,-0.3574 0.0236,-0.377976 0.006,-0.0056 0.0181,0.0056 0.0236,0 0.0191,-0.01913 -0.009,-0.114253 0,-0.141743 0.004,-0.01056 0.0157,-0.01574 0.0236,-0.02363 0.008,-0.01574 0.0193,-0.03017 0.0236,-0.04725 0.006,-0.02291 -0.007,-0.04846 0,-0.07087 0.009,-0.02694 0.0383,-0.04394 0.0472,-0.07087 0.0459,-0.137774 0.0354,-0.537673 0,-0.661459 -0.0281,-0.09822 -0.12497,-0.234704 -0.18899,-0.330729 -0.031,-0.04652 -0.0612,-0.132112 -0.0945,-0.165364 -0.0262,-0.02622 -0.0889,-0.03752 -0.11812,-0.04725 -0.0515,0.0088 -0.008,-0.03937 -0.0236,-0.04725 -0.0186,-0.02114 -0.0497,0.01056 -0.0709,0 -0.01,-0.005 -0.0157,-0.01574 -0.0236,-0.02363 -0.0236,-0.01574 -0.0445,-0.0367 -0.0709,-0.04725 -0.0684,-0.02734 -0.13925,-0.0053 -0.21261,-0.02363 -0.11594,-0.02896 -0.16709,-0.03457 -0.2835,0.02364 z"
         id="path1908" />
      <path
         style="fill:#229713;fill-opacity:1;stroke:none;stroke-width:0.264583px;stroke-linecap:butt;stroke-linejoin:miter;stroke-opacity:1"
         d="m 149.01711,31.159413 c -0.11812,0.05512 -0.24492,0.09455 -0.35435,0.165364 -0.0356,0.02304 -0.0852,0.09915 -0.0472,0.118118 0.0556,0.02779 0.527,-0.06785 0.56697,-0.0945 0.0146,-0.0098 0.0112,-0.03479 0.0236,-0.04725 0.0343,-0.03429 0.13306,-0.03856 0.16537,-0.07087 0.0758,-0.07576 -0.21305,-0.13684 -0.25986,-0.118115 -0.0327,0.01307 -0.063,0.0315 -0.0945,0.04725 z"
         id="path1910" />
    </g>
    <g
       id="g1940"
       transform="translate(1.7481399,-13.28114)"
       inkscape:export-xdpi="96"
       inkscape:export-ydpi="96">
      <path
         style="fill:#f4de64;fill-opacity:1;stroke:#000000;stroke-width:0.065;stroke-linecap:butt;stroke-linejoin:miter;stroke-miterlimit:4;stroke-dasharray:none;stroke-opacity:1"
         d="m 170.84524,20.576079 -5.50428,5.480654 0.7087,0.661458 5.43341,-5.598772 z"
         id="path1925" />
      <path
         style="fill:#f9acf9;fill-opacity:1;stroke:#000000;stroke-width:0.065;stroke-linecap:butt;stroke-linejoin:miter;stroke-miterlimit:4;stroke-dasharray:none;stroke-opacity:1"
         d="m 170.84524,20.576079 0.56696,-0.755953 0.99219,0.921317 -0.92132,0.377976 z"
         id="path1927" />
      <path
         style="fill:#8e5f0e;fill-opacity:1;stroke:#090601;stroke-width:0.065;stroke-linecap:butt;stroke-linejoin:miter;stroke-miterlimit:4;stroke-dasharray:none;stroke-opacity:1"
         d="m 165.34096,26.056733 -0.77958,1.252048 1.48828,-0.59059 z"
         id="path1929" />
      <path
         id="path1931"
         style="fill:#000000;fill-opacity:1;stroke:none;stroke-width:0.999999px;stroke-linecap:butt;stroke-linejoin:miter;stroke-opacity:1"
         d="m 623.15625,101.30078 -1.19141,1.91406 2.42383,-0.96093 c -0.16866,-0.17939 -0.34341,-0.35918 -0.37109,-0.37891 -0.28105,-0.20075 -0.57156,-0.38659 -0.86133,-0.57422 z"
         transform="scale(0.26458333)" />
    </g>
    <ellipse
       style="font-variation-settings:normal;opacity:1;vector-effect:none;fill:url(#radialGradient2404);fill-opacity:1;stroke:#000000;stroke-width:0.0495899;stroke-linecap:butt;stroke-linejoin:miter;stroke-miterlimit:4;stroke-dasharray:none;stroke-dashoffset:0;stroke-opacity:1;stop-color:#000000;stop-opacity:1"
       id="path2375"
       cx="192.39703"
       cy="13.707526"
       rx="3.3240068"
       ry="2.0543492"
       inkscape:export-xdpi="97.097099"
       inkscape:export-ydpi="97.097099" />
    <path
       id="path2377"
       style="font-variation-settings:normal;opacity:1;vector-effect:none;fill:url(#radialGradient2402);fill-opacity:1;stroke:#000000;stroke-width:0.09505;stroke-linecap:butt;stroke-linejoin:miter;stroke-miterlimit:4;stroke-dasharray:none;stroke-dashoffset:0;stroke-opacity:1;stop-color:#000000;stop-opacity:1"
       d="m 192.47854,3.4769205 a 0.72896256,0.72896256 0 0 0 -0.7283,0.729068 0.72896256,0.72896256 0 0 0 0.36466,0.631175 v 0.217823 a 4.4069103,4.4069103 0 0 0 -3.48928,2.207193 h 0.7775 v 0.787239 h -0.7775 a 4.4069103,4.4069103 0 0 0 -0.007,0.01333 5.9332562,6.3963346 0 0 0 -0.89307,-0.07304 5.9332562,6.3963346 0 0 0 -0.0459,0 5.9332562,6.3963346 0 0 0 -2.87117,0.826704 l 0.61324,1.2800335 a 4.5978714,4.9567258 0 0 1 2.2692,-0.6670515 4.5978714,4.9567258 0 0 1 0.0346,0 4.5978714,4.9567258 0 0 1 0.3908,0.01819 4.4069103,4.4069103 0 0 0 -0.0712,0.7887775 4.4069103,4.4069103 0 0 0 4.4067,4.406952 4.4069103,4.4069103 0 0 0 3.5495,-1.795378 2.8661484,3.0433077 0 0 0 1.80204,0.676791 2.8661484,3.0433077 0 0 0 2.86604,-3.043379 2.8661484,3.0433077 0 0 0 -2.86604,-3.0431215 2.8661484,3.0433077 0 0 0 -0.0159,0 2.8661484,3.0433077 0 0 0 -1.70748,0.611188 h -0.48028 v -0.787235 h 0.67808 a 4.4069103,4.4069103 0 0 0 -3.43367,-2.202324 v -0.222692 a 0.72896256,0.72896256 0 0 0 0.36466,-0.631175 0.72896256,0.72896256 0 0 0 -0.72907,-0.729068 0.72896256,0.72896256 0 0 0 -7.6e-4,0 z m 5.30207,4.728562 a 2.1434381,2.275926 0 0 1 0.0223,0 2.1434381,2.275926 0 0 1 2.14339,2.2758695 2.1434381,2.275926 0 0 1 -2.14339,2.275872 2.1434381,2.275926 0 0 1 -1.40611,-0.558141 4.4069103,4.4069103 0 0 0 0.46153,-1.962717 4.4069103,4.4069103 0 0 0 -0.3029,-1.6057435 2.1434381,2.275926 0 0 1 1.22519,-0.42514 z"
       inkscape:export-xdpi="97.097099"
       inkscape:export-ydpi="97.097099" />
    <path
       id="path2432"
       style="font-variation-settings:normal;opacity:1;vector-effect:none;fill:#000000;fill-opacity:1;stroke:#000000;stroke-width:0.070589;stroke-linecap:butt;stroke-linejoin:miter;stroke-miterlimit:4;stroke-dasharray:none;stroke-dashoffset:0;stroke-opacity:1;stop-color:#000000;stop-opacity:1"
       d="m 11.534531,29.736968 a 0.49764161,0.49764161 0 0 0 -0.485155,0.497557 0.49764161,0.49764161 0 0 0 0.03793,0.19005 1.8866276,1.8866276 0 0 0 -0.04377,0.02225 l -0.22981,-0.648941 c -0.05977,0.02967 -0.116093,0.06607 -0.167433,0.108704 -0.284425,0.23617 -0.384205,0.67246 -0.159773,0.979431 a 1.8866276,1.8866276 0 0 0 -0.460351,1.23514 1.8866276,1.8866276 0 0 0 0.416212,1.181517 3.2586815,3.3530132 0 0 0 -1.8253514,2.754807 3.2544328,4.3392439 0 0 0 -0.00584,0.261547 3.2544328,4.3392439 0 0 0 3.2545544,4.339405 3.2544328,4.3392439 0 0 0 3.254554,-4.339405 3.2544328,4.3392439 0 0 0 -0.0065,-0.27103 3.2586815,3.3530132 0 0 0 -1.758597,-2.711035 1.8866276,1.8866276 0 0 0 0.444301,-1.215806 1.8866276,1.8866276 0 0 0 -0.339609,-1.07938 c 0.0519,-0.03124 0.100092,-0.06939 0.13971,-0.115634 0.263692,-0.307794 0.163851,-0.773252 -0.13278,-1.019557 -0.05134,-0.04263 -0.107669,-0.07903 -0.167434,-0.108704 L 13.0181,30.592369 a 1.8866276,1.8866276 0 0 0 -0.144087,-0.09448 0.49764161,0.49764161 0 0 0 0.07551,-0.26337 0.49764161,0.49764161 0 0 0 -0.497558,-0.497558 0.49764161,0.49764161 0 0 0 -0.452326,0.290729 0.49764161,0.49764161 0 0 0 -0.452689,-0.290729 0.49764161,0.49764161 0 0 0 -0.0124,0 z" />
    <path
       style="fill:none;stroke:#000000;stroke-width:0.398827;stroke-linecap:round;stroke-linejoin:miter;stroke-miterlimit:4;stroke-dasharray:none;stroke-opacity:1"
       d="m 13.259517,31.550386 1.434101,-0.933834 0.767077,-4.068844"
       id="path2472" />
    <path
       style="fill:none;stroke:#000000;stroke-width:0.398827;stroke-linecap:round;stroke-linejoin:miter;stroke-miterlimit:4;stroke-dasharray:none;stroke-opacity:1"
       d="m 13.326219,32.284112 3.034957,-0.300161 1.600858,-1.600856"
       id="path2474" />
    <path
       style="fill:none;stroke:#000000;stroke-width:0.398827;stroke-linecap:round;stroke-linejoin:miter;stroke-miterlimit:4;stroke-dasharray:none;stroke-opacity:1"
       d="m 12.992708,32.517571 4.2356,0.466917 1.534154,0.867129"
       id="path2476" />
    <path
       style="fill:none;stroke:#000000;stroke-width:0.398827;stroke-linecap:round;stroke-linejoin:miter;stroke-miterlimit:4;stroke-dasharray:none;stroke-opacity:1"
       d="m 12.525791,32.851082 4.335654,2.001072 0.500268,2.434636"
       id="path2478" />
    <path
       style="fill:none;stroke:#000000;stroke-width:0.398827;stroke-linecap:round;stroke-linejoin:miter;stroke-miterlimit:4;stroke-dasharray:none;stroke-opacity:1"
       d="M 10.65812,31.550386 9.2240207,30.616552 8.4569437,26.547708"
       id="path2480" />
    <path
       style="fill:none;stroke:#000000;stroke-width:0.398827;stroke-linecap:round;stroke-linejoin:miter;stroke-miterlimit:4;stroke-dasharray:none;stroke-opacity:1"
       d="M 10.591419,32.284112 7.5564628,31.983951 5.955607,30.383095"
       id="path2482" />
    <path
       style="fill:none;stroke:#000000;stroke-width:0.398827;stroke-linecap:round;stroke-linejoin:miter;stroke-miterlimit:4;stroke-dasharray:none;stroke-opacity:1"
       d="M 10.92493,32.517571 6.6893323,32.984488 5.1551789,33.851617"
       id="path2484" />
    <path
       style="fill:none;stroke:#000000;stroke-width:0.398827;stroke-linecap:round;stroke-linejoin:miter;stroke-miterlimit:4;stroke-dasharray:none;stroke-opacity:1"
       d="M 11.391847,32.851082 7.0561949,34.852154 6.5559276,37.28679"
       id="path2486" />
  </g>
</svg>
