<?xml version="1.0" encoding="UTF-8" standalone="no"?>
<svg
   xmlns:dc="http://purl.org/dc/elements/1.1/"
   xmlns:cc="http://creativecommons.org/ns#"
   xmlns:rdf="http://www.w3.org/1999/02/22-rdf-syntax-ns#"
   xmlns:svg="http://www.w3.org/2000/svg"
   xmlns="http://www.w3.org/2000/svg"
   xmlns:xlink="http://www.w3.org/1999/xlink"
   xmlns:sodipodi="http://sodipodi.sourceforge.net/DTD/sodipodi-0.dtd"
   xmlns:inkscape="http://www.inkscape.org/namespaces/inkscape"
   width="210mm"
   height="297mm"
   viewBox="0 0 210 297"
   version="1.1"
   id="svg5996"
   inkscape:version="1.0.2-2 (e86c870879, 2021-01-15)"
   sodipodi:docname="Things.svg">
  <defs
     id="defs5990">
    <linearGradient
       inkscape:collect="always"
       id="linearGradient896">
      <stop
         style="stop-color:#e4e4e4;stop-opacity:1"
         offset="0"
         id="stop892" />
      <stop
         style="stop-color:#f7f7f7;stop-opacity:1"
         offset="1"
         id="stop894" />
    </linearGradient>
    <linearGradient
       inkscape:collect="always"
       id="linearGradient850">
      <stop
         style="stop-color:#767676;stop-opacity:1;"
         offset="0"
         id="stop846" />
      <stop
         style="stop-color:#8c8c8c;stop-opacity:1"
         offset="1"
         id="stop848" />
    </linearGradient>
    <linearGradient
       inkscape:collect="always"
       xlink:href="#linearGradient850"
       id="linearGradient852"
       x1="6.6817384"
       y1="12.227581"
       x2="12.49485"
       y2="10.289877"
       gradientUnits="userSpaceOnUse" />
    <radialGradient
       inkscape:collect="always"
       xlink:href="#linearGradient896"
       id="radialGradient900"
       cx="75.784233"
       cy="12.284225"
       fx="75.784233"
       fy="12.284225"
       r="6.2476185"
       gradientUnits="userSpaceOnUse"
       gradientTransform="matrix(0.96965651,0.05443866,-0.05839762,1.0401732,3.0169273,-4.619089)" />
  </defs>
  <sodipodi:namedview
     id="base"
     pagecolor="#ffffff"
     bordercolor="#666666"
     borderopacity="1.0"
     inkscape:pageopacity="0.0"
     inkscape:pageshadow="2"
     inkscape:zoom="1.4"
     inkscape:cx="41.658475"
     inkscape:cy="70.222821"
     inkscape:document-units="mm"
     inkscape:current-layer="layer1"
     inkscape:document-rotation="0"
     showgrid="false"
     inkscape:window-width="1920"
     inkscape:window-height="1017"
     inkscape:window-x="1592"
     inkscape:window-y="-8"
     inkscape:window-maximized="1"
     inkscape:snap-global="false" />
  <metadata
     id="metadata5993">
    <rdf:RDF>
      <cc:Work
         rdf:about="">
        <dc:format>image/svg+xml</dc:format>
        <dc:type
           rdf:resource="http://purl.org/dc/dcmitype/StillImage" />
        <dc:title />
      </cc:Work>
    </rdf:RDF>
  </metadata>
  <g
     inkscape:label="Layer 1"
     inkscape:groupmode="layer"
     id="layer1">
    <circle
       style="fill:#767676;fill-opacity:1;stroke:#000000;stroke-width:0.284852;stroke-opacity:1;stop-color:#000000"
       id="path6559"
       cx="6.8613963"
       cy="9.3576899"
       rx="4.9701085"
       ry="4.9391384"
       transform="matrix(0.99376875,-0.11146153,0,1,0,0)"
       inkscape:export-xdpi="97.097099"
       inkscape:export-ydpi="97.097099" />
    <g
       id="g844"
       style="fill-opacity:1;fill:url(#linearGradient852)"
       inkscape:export-xdpi="97.097099"
       inkscape:export-ydpi="97.097099">
      <path
         style="font-variation-settings:normal;opacity:1;vector-effect:none;fill:url(#linearGradient852);fill-opacity:1.0;stroke:#000000;stroke-width:0.283963;stroke-linecap:butt;stroke-linejoin:miter;stroke-miterlimit:4;stroke-dasharray:none;stroke-dashoffset:0;stroke-opacity:1;stop-color:#000000;stop-opacity:1"
         d="m 7.31217,6.7663346 9.40288,9.3357164 -0.134327,2.082066 H 14.901637 L 5.498758,9.5200346 Z"
         id="path6561"
         inkscape:export-xdpi="97.097099"
         inkscape:export-ydpi="97.097099" />
      <ellipse
         style="fill:url(#linearGradient852);stroke:#000000;stroke-width:0.57189;stop-color:#000000;fill-opacity:1.0"
         id="path840"
         cx="7.0853095"
         cy="8.9247808"
         rx="5.8530812"
         ry="5.7128859"
         transform="matrix(0.97604759,-0.21755714,0,1,0,0)" />
    </g>
    <rect
       style="fill:#000000;fill-opacity:1;stroke:none;stroke-width:0.1;stroke-miterlimit:4;stroke-dasharray:none;stop-color:#000000"
       id="rect866"
       width="0.15869127"
       height="0.56794775"
       x="31.646385"
       y="2.4137778"
       inkscape:export-xdpi="97.097099"
       inkscape:export-ydpi="97.097099" />
    <path
       style="fill:#cecece;fill-opacity:1;stroke:none;stroke-width:0.264583px;stroke-linecap:butt;stroke-linejoin:miter;stroke-opacity:1"
       d="m 30.589168,2.8191849 -0.334087,9.1539811 2.071339,0.06682 0.400903,-9.4212503 z"
       id="path854"
       inkscape:export-xdpi="97.097099"
       inkscape:export-ydpi="97.097099" />
    <path
       id="path856"
       style="fill:#967f21;fill-opacity:1;stroke:#000000;stroke-width:0.1;stroke-linecap:butt;stroke-linejoin:miter;stroke-miterlimit:4;stroke-dasharray:none;stroke-opacity:1"
       d="m 29.812872,11.847117 c 0,0 0.02377,0.354278 0.189136,0.649573 0.165364,0.295293 0.791166,0.531751 0.791166,0.531751 l -0.09457,0.153478 -0.791166,0.02377 -0.01188,0.17725 0.756026,-0.01188 -0.02377,0.165364 -0.814939,-0.02377 -0.01188,0.165364 0.897619,0.04703 0.0708,0.201021 c 0,0 -0.921243,0.118043 -0.89762,0.236161 0.02362,0.118118 0.0358,0.165217 0.142111,0.224276 0.106306,0.05906 0.74414,0.106454 0.74414,0.106454 L 30.56891,14.90637 c 0,0 -1.464954,0.34254 -1.453142,0.413411 0.01181,0.07087 -0.03514,0.283704 -0.03514,0.283704 l 1.819011,0.105937 0.413411,0.0035 0.412895,-0.0035 1.819011,-0.105937 c 0,0 -0.04695,-0.212834 -0.03514,-0.283704 0.0118,-0.07087 -1.453142,-0.413411 -1.453142,-0.413411 l -0.188619,-0.413411 c 0,0 0.637834,-0.04739 0.744141,-0.106454 0.10631,-0.05906 0.117972,-0.106158 0.141592,-0.224276 0.02363,-0.118118 -0.897619,-0.236161 -0.897619,-0.236161 l 0.0708,-0.201021 0.897619,-0.04703 -0.01188,-0.165364 -0.814937,0.02377 -0.02377,-0.165365 0.756026,0.01188 -0.01188,-0.17725 -0.791179,-0.02377 -0.09457,-0.153478 c 0,0 0.626318,-0.236458 0.791683,-0.531751 0.165367,-0.295295 0.188618,-0.649573 0.188618,-0.649573 l -1.476395,0.03566 -0.02325,-0.01085 -0.02377,0.01085 z"
       sodipodi:nodetypes="csccccccccccssccscccccsccssccccccccccsccccc"
       inkscape:export-xdpi="97.097099"
       inkscape:export-ydpi="97.097099" />
    <path
       id="path861"
       style="fill:#962121;fill-opacity:1;stroke:none;stroke-width:0.1;stroke-miterlimit:4;stroke-dasharray:none;stop-color:#000000"
       d="m 31.809132,0.10623198 c 0,0 -0.224571,0.25978482 -0.3545,0.48420817 C 31.324703,0.81486351 31.171445,2.090607 31.171445,2.090607 l 0.01344,0.00103 a 0.55515253,0.52562315 0 0 0 -0.0021,0.040308 0.55515253,0.52562315 0 0 0 0.555522,0.5255493 0.55515253,0.52562315 0 0 0 0.555004,-0.5255493 0.55515253,0.52562315 0 0 0 -0.04961,-0.2165242 C 32.197135,1.5569457 32.092832,0.76395328 32.045294,0.60232573 31.986235,0.4015259 31.809132,0.10623198 31.809132,0.10623198 Z"
       inkscape:export-xdpi="97.097099"
       inkscape:export-ydpi="97.097099" />
    <circle
       style="fill:#5d4e14;fill-opacity:1;stroke:#000000;stroke-width:0.215971;stroke-miterlimit:4;stroke-dasharray:none;stroke-opacity:1;stop-color:#000000"
       id="path868"
       cx="53.956104"
       cy="9.8273802"
       r="4.4387398"
       inkscape:export-xdpi="97.097099"
       inkscape:export-ydpi="97.097099" />
    <path
       style="fill:none;stroke:#000000;stroke-width:0.142856px;stroke-linecap:butt;stroke-linejoin:miter;stroke-opacity:1"
       d="m 51.087438,12.007193 c 0,-0.02405 -0.0066,-0.04903 0,-0.07215 0.01133,-0.03962 0.192265,-0.236407 0.216459,-0.252537 0.01582,-0.01055 0.0389,-0.0066 0.05412,-0.01804 0.107919,-0.08094 0.192477,-0.194458 0.30665,-0.270574 0.06711,-0.04474 0.182738,-0.09764 0.234498,-0.162345 0.01188,-0.01485 0.0046,-0.04067 0.01804,-0.05411 0.01902,-0.01902 0.05027,-0.02045 0.07215,-0.03608 0.01731,-0.01236 0.186078,-0.159813 0.198421,-0.180383 0.05321,-0.08868 0.191077,-0.245192 0.270574,-0.324689 0.0095,-0.0095 0.02657,-0.0085 0.03608,-0.01804 0.04135,-0.04135 0.12174,-0.12773 0.144306,-0.180383 0.0071,-0.01658 -0.0081,-0.03798 0,-0.05411 0.0064,-0.01281 0.05936,-0.03493 0.07215,-0.05411 0.04063,-0.06095 0.08587,-0.119786 0.126267,-0.180383 0.01153,-0.01728 0.0179,-0.05398 0.03608,-0.07215 0.01091,-0.01091 0.06192,-0.03366 0.07215,-0.05411 0.0053,-0.01075 -0.0085,-0.027574 0,-0.036078 0.0043,-0.00427 0.01378,0.00427 0.01804,0 0.02041,-0.020409 -0.03054,-0.1277023 -0.03608,-0.1443063 -0.05517,-0.1655138 0.03705,0.092147 -0.07216,-0.1262647 -0.039,-0.078035 -0.08877,-0.30933 -0.108221,-0.3968633 -0.01929,-0.086817 -0.05478,-0.1656587 -0.07215,-0.2525361 -0.05423,-0.2711813 -0.113288,-0.5433424 -0.180383,-0.8117233 -0.006,-0.018038 -0.01203,-0.036076 -0.01804,-0.054115 -0.006,-0.00601 -0.01488,-0.010142 -0.01804,-0.018038 -0.04005,-0.1001212 -0.05482,-0.1906959 -0.108229,-0.2886127 -0.02076,-0.038064 -0.06365,-0.065713 -0.07215,-0.1082299 -0.01649,-0.082486 -0.0075,-0.2056172 0,-0.2886127 0.006,-0.06558 0.04492,-0.2016058 0.09019,-0.2525361 0.0312,-0.035099 0.07889,-0.053521 0.108229,-0.090191 0.02023,-0.025284 0.01869,-0.062874 0.03608,-0.090191 0.02522,-0.039619 0.06156,-0.071007 0.09019,-0.1082299 0.08927,-0.11605 0.166364,-0.2565571 0.270573,-0.3607658 0.102269,-0.1022694 0.190805,-0.1629052 0.324691,-0.2164596 0.02235,-0.00894 0.04938,-0.048421 0.07215,-0.054115 0.0175,-0.00437 0.03643,0.00354 0.05412,0 0.04241,-0.00848 0.08417,-0.043591 0.126268,-0.054115 0.02333,-0.00583 0.04843,0.00395 0.07215,0 0.04655,0.018653 0.07094,-0.028619 0.108229,-0.036076 0.163066,-0.032613 0.363613,-0.026583 0.523112,0 0.108788,0.018131 0.224564,-0.015337 0.324689,0.018038 0.05243,0.017478 0.131559,-0.024412 0.180382,0 0.07089,0.035445 0.154842,0.00211 0.234499,0.018039 0.08453,0.016906 0.305178,0.064054 0.378804,0.1082297 0.01458,0.00875 0.02131,0.027639 0.03608,0.036076 0.05377,0.030727 0.143711,0.048706 0.198421,0.072153 0.04244,0.01819 0.08525,0.072614 0.126268,0.090192 0.01658,0.00711 0.037,-0.0057 0.05411,0 0.0046,0.00153 0.106914,0.1592727 0.108229,0.1623445 0.01599,0.037319 0.0864,0.2382907 0.05412,0.2705745 -0.02484,0.024836 -0.07826,0.049677 -0.10823,0.072153 -0.04047,0.030351 -0.09789,0.1107949 -0.144306,0.126268 -0.04075,0.013583 -0.152936,-0.027447 -0.180383,0 -0.01625,0.016246 0.09773,0.2285717 0.108229,0.2705745 0.0099,0.039613 -0.0099,0.086655 0,0.1262681 0.01015,0.040597 0.02946,0.08658 0.03608,0.126268 0.02409,0.1445126 -0.03541,0.3092866 0,0.4509574 0.01199,0.04796 0.05089,0.1198255 0.07215,0.1623447 0.01804,0.036076 0.07215,0.054115 0.09019,0.090191 0.0027,0.00538 0,0.012026 0,0.018038 0.006,0.018039 0.0066,0.038903 0.01804,0.054115 0.0081,0.010755 0.02657,0.00853 0.03608,0.018038 0.02371,0.023715 0.05949,0.1243497 0.07215,0.1623447 0.01004,0.030112 0,0.075775 0,0.1082297 0,0.012672 0.0089,0.081247 0,0.090192 -0.0055,0.00549 -0.168939,0.0503 -0.180383,0.054115 -0.04468,0.014895 -0.109823,0.062337 -0.162344,0.036076 -0.02008,-0.010042 -0.121019,-0.030827 -0.126269,-0.036076 -0.0043,-0.00425 0.0043,-0.013787 0,-0.018038 -0.009,-0.00902 -0.04509,0.00902 -0.05411,0 -0.0043,-0.00425 0.006,-0.018038 0,-0.018038 -0.01203,0 0,0.024051 0,0.036076 0,0.048102 0,0.096204 0,0.1443063 0,0.1267197 0.02544,0.076325 0.05411,0.1623447 0.01804,0.054115 -0.009,0.018038 0,0.054115 0.01273,0.050896 0.03817,0.07842 0.05412,0.1262681 0.02488,0.074642 -10e-4,0.2025331 -0.01804,0.2705744 -0.0021,0.00825 -0.01598,0.00979 -0.01804,0.018038 -0.0044,0.0175 0.005,0.036771 0,0.054115 -0.02213,0.077466 -0.02805,0.068143 -0.07215,0.090191 -0.03093,0.015463 -0.0074,0.034995 -0.03608,0.054115 -0.09591,0.06394 -0.300337,0.072153 -0.414881,0.072153 -0.04884,0 -0.118236,0.014703 -0.162345,0 -0.0057,-0.00189 0.0043,-0.013784 0,-0.018039 -0.0085,-0.0085 -0.02757,0.0085 -0.03608,0 -0.0085,-0.0085 0.01076,-0.0307 0,-0.036078 -0.01076,-0.0054 -0.02467,0.00378 -0.03608,0 -0.03212,-0.010707 -0.04521,-0.076605 -0.09019,-0.054115 -0.0055,0.00274 -0.0013,0.1056876 0,0.1082295 0.01422,0.028433 0.126711,0.1506136 0.144306,0.1623446 0.02694,0.01796 0.06429,0.01665 0.09019,0.03608 0.02099,0.01574 0.04984,0.06788 0.07215,0.09019 0.03112,0.03112 0.06345,0.03649 0.09019,0.07215 0.03887,0.05183 0.06909,0.110158 0.10823,0.162345 0.0081,0.01075 0.01203,0.02405 0.01804,0.03608 0.006,0.01804 0.0066,0.0389 0.01804,0.05411 0.0081,0.01075 0.02801,0.0073 0.03608,0.01804 0.03904,0.05206 0.06083,0.139698 0.09019,0.198421 0.0038,0.0076 0.01203,0.01202 0.01804,0.01804 0.01203,0.01202 0.02847,0.02087 0.03608,0.03608 0.0081,0.01613 -0.01276,0.04136 0,0.05412 0.0095,0.0095 0.02657,0.0085 0.03608,0.01804 0.07307,0.07307 0.118522,0.200969 0.162345,0.288613 0.03421,0.06842 0.104532,0.134133 0.162344,0.180383 0.02738,0.0219 0.0654,0.02932 0.09019,0.05412 0.06974,0.06974 0.138301,0.240524 0.180384,0.324689 0.01908,0.03816 0.06976,0.09358 0.09019,0.126268 0.03758,0.06013 0.05372,0.143712 0.09019,0.198421 0.03998,0.05996 0.09248,0.09478 0.126267,0.162345 0.01042,0.02084 0.08167,0.09396 0.07215,0.10823 -0.02917,0.04375 -0.07264,0.0546 -0.10823,0.09019 -0.168172,0.168172 -0.0498,0.09903 -0.252537,0.270575 -0.123331,0.104357 -0.280943,0.181283 -0.41488,0.270574 -0.08967,0.05978 -0.380241,0.122947 -0.487034,0.144306 -0.01319,0.0026 -0.02405,0.01202 -0.03608,0.01804 -0.03608,0.01202 -0.07082,0.02928 -0.108229,0.03608 -0.121119,0.02202 -0.255984,-0.01024 -0.378804,0 -0.08356,0.007 -0.167671,0.02865 -0.252537,0.01804 -0.13417,-0.01677 -0.248701,-0.100247 -0.378804,-0.126268 -0.02948,-0.0059 -0.06028,0.003 -0.09019,0 -0.05739,0.03761 -0.08293,-0.02989 -0.126269,-0.03608 -0.05982,-0.0085 -0.120325,-0.01137 -0.180383,-0.01804 -0.0487,-0.0054 -0.114993,0.0068 -0.162344,0 -0.113102,-0.01616 -0.230937,-0.06535 -0.342728,-0.09019 -0.02348,-0.0052 -0.04882,0.0058 -0.07215,0 -0.07626,-0.01906 -0.145327,-0.07978 -0.21646,-0.10823 -0.01117,-0.0045 -0.02532,0.0054 -0.03608,0 -0.07187,-0.03594 -7.9e-5,-0.03609 -0.07215,-0.05411 -0.07288,-0.01822 -0.166563,-0.04773 -0.234498,-0.09019 -0.0255,-0.01593 -0.0439,-0.04384 -0.07215,-0.05412 -0.03995,-0.01453 -0.08563,-0.0055 -0.126267,-0.01804 -0.01776,-0.0055 -0.148498,-0.07653 -0.180383,-0.09019 -0.07552,-0.03236 -0.161276,-0.05358 -0.234499,-0.09019 -0.106124,-0.05306 -0.299264,-0.136921 -0.378804,-0.216459 -0.0043,-0.0043 0.0043,-0.01379 0,-0.01804 -0.0043,-0.0043 -0.01378,0.0043 -0.01804,0 -0.03822,-0.03822 -0.05116,-0.06625 -0.07215,-0.10823 -0.01243,-0.02486 -0.0423,-0.02426 -0.05412,-0.03608 -0.01344,-0.01344 -4.29e-4,-0.04705 -0.01804,-0.05411 -0.02846,-0.01139 -0.06013,-0.01202 -0.09019,-0.01804 z"
       id="path872"
       inkscape:export-xdpi="97.097099"
       inkscape:export-ydpi="97.097099" />
    <path
       style="fill:none;stroke:#000000;stroke-width:0.142856px;stroke-linecap:butt;stroke-linejoin:miter;stroke-opacity:1"
       d="m 50.091337,10.426866 c 0.09196,-0.03188 0.178728,-0.0766 0.267855,-0.114796 0.01993,-0.0085 0.04845,0.0026 0.06377,-0.01275 0.003,-0.003 -0.003,-0.0097 0,-0.01275 0.0079,-0.0079 0.04064,0.05339 0.05102,0.06377 0.04383,0.04383 0.08886,0.04896 0.15306,0.06377 0.05859,0.01352 0.118741,0.01953 0.17857,0.02551 0.02877,0.0029 0.11354,-0.02054 0.127551,-0.01275 0.01761,0.0098 0.11383,0.07621 0.15306,0.08928 0.06723,0.02241 0.196961,0.02851 0.267855,0.01275 0.130563,-0.02901 0.04637,-0.02551 0.127549,-0.02551"
       id="path878"
       inkscape:export-xdpi="97.097099"
       inkscape:export-ydpi="97.097099" />
    <path
       style="fill:none;stroke:#000000;stroke-width:0.142856px;stroke-linecap:butt;stroke-linejoin:miter;stroke-opacity:1"
       d="m 55.971393,10.796761 c 0.479261,-0.09111 0.201873,0.05601 0.53571,0.12755 0.05956,0.01276 0.2076,-0.04926 0.255099,-0.02551 0.04405,0.02202 0.06779,0.07854 0.114796,0.10204 0.01939,0.0097 0.04286,0.0071 0.06377,0.01276 0.08928,0.02435 0.163803,0.02551 0.255099,0.02551"
       id="path880"
       inkscape:export-xdpi="97.097099"
       inkscape:export-ydpi="97.097099" />
    <circle
       style="fill:url(#radialGradient900);fill-opacity:1;stroke:#000000;stroke-width:0.296764;stroke-miterlimit:4;stroke-dasharray:none;stroke-opacity:1;stop-color:#000000"
       id="circle884"
       cx="78.146584"
       cy="10.205357"
       r="6.0992365"
       inkscape:export-xdpi="97.097099"
       inkscape:export-ydpi="97.097099" />
    <path
       style="fill:none;stroke:#de4e35;stroke-width:0.765;stroke-linecap:butt;stroke-linejoin:miter;stroke-miterlimit:4;stroke-dasharray:0.765, 0.765;stroke-dashoffset:0;stroke-opacity:1"
       d="m 72.760417,9.6383927 c 0,0 2.36235,-2.6458332 3.968749,-2.456845 1.606399,0.1889879 2.312089,-0.3091804 3.779761,2.2678569 0.604717,1.0618024 1.173451,3.0242124 10e-7,4.6302084 -1.024915,1.40271 -3.118303,1.700892 -3.118303,1.700892"
       id="path904"
       sodipodi:nodetypes="csssc"
       inkscape:export-xdpi="97.097099"
       inkscape:export-ydpi="97.097099" />
    <rect
       style="fill:#de4e35;fill-opacity:1;stroke:none;stroke-width:0.567204;stroke-miterlimit:4;stroke-dasharray:none;stroke-dashoffset:0;stroke-opacity:1;stop-color:#000000"
       id="rect908"
       width="3.089385"
       height="1.5380423"
       x="56.769989"
       y="-54.259747"
       transform="matrix(0.62716327,0.77888782,-0.76484822,0.64421053,0,0)"
       inkscape:export-xdpi="97.097099"
       inkscape:export-ydpi="97.097099" />
  </g>
</svg>
