<?xml version="1.0" encoding="UTF-8" standalone="no"?>
<svg
   xmlns:dc="http://purl.org/dc/elements/1.1/"
   xmlns:cc="http://creativecommons.org/ns#"
   xmlns:rdf="http://www.w3.org/1999/02/22-rdf-syntax-ns#"
   xmlns:svg="http://www.w3.org/2000/svg"
   xmlns="http://www.w3.org/2000/svg"
   xmlns:xlink="http://www.w3.org/1999/xlink"
   xmlns:sodipodi="http://sodipodi.sourceforge.net/DTD/sodipodi-0.dtd"
   xmlns:inkscape="http://www.inkscape.org/namespaces/inkscape"
   width="210mm"
   height="297mm"
   viewBox="0 0 210 297"
   version="1.1"
   id="svg5996"
   inkscape:version="1.0.2-2 (e86c870879, 2021-01-15)"
   sodipodi:docname="Things.svg">
  <defs
     id="defs5990">
    <linearGradient
       inkscape:collect="always"
       id="linearGradient850">
      <stop
         style="stop-color:#767676;stop-opacity:1;"
         offset="0"
         id="stop846" />
      <stop
         style="stop-color:#8c8c8c;stop-opacity:1"
         offset="1"
         id="stop848" />
    </linearGradient>
    <linearGradient
       inkscape:collect="always"
       xlink:href="#linearGradient850"
       id="linearGradient852"
       x1="6.6817384"
       y1="12.227581"
       x2="12.49485"
       y2="10.289877"
       gradientUnits="userSpaceOnUse" />
  </defs>
  <sodipodi:namedview
     id="base"
     pagecolor="#ffffff"
     bordercolor="#666666"
     borderopacity="1.0"
     inkscape:pageopacity="0.0"
     inkscape:pageshadow="2"
     inkscape:zoom="2.8"
     inkscape:cx="181.92051"
     inkscape:cy="78.52237"
     inkscape:document-units="mm"
     inkscape:current-layer="layer1"
     inkscape:document-rotation="0"
     showgrid="false"
     inkscape:window-width="1920"
     inkscape:window-height="1017"
     inkscape:window-x="1592"
     inkscape:window-y="-8"
     inkscape:window-maximized="1"
     inkscape:snap-global="false" />
  <metadata
     id="metadata5993">
    <rdf:RDF>
      <cc:Work
         rdf:about="">
        <dc:format>image/svg+xml</dc:format>
        <dc:type
           rdf:resource="http://purl.org/dc/dcmitype/StillImage" />
        <dc:title />
      </cc:Work>
    </rdf:RDF>
  </metadata>
  <g
     inkscape:label="Layer 1"
     inkscape:groupmode="layer"
     id="layer1">
    <circle
       style="fill:#767676;fill-opacity:1;stroke:#000000;stroke-width:0.284852;stroke-opacity:1;stop-color:#000000"
       id="path6559"
       cx="6.8613963"
       cy="9.3576899"
       rx="4.9701085"
       ry="4.9391384"
       transform="matrix(0.99376875,-0.11146153,0,1,0,0)"
       inkscape:export-xdpi="97.097099"
       inkscape:export-ydpi="97.097099" />
    <g
       id="g844"
       style="fill-opacity:1;fill:url(#linearGradient852)"
       inkscape:export-xdpi="97.097099"
       inkscape:export-ydpi="97.097099">
      <path
         style="font-variation-settings:normal;opacity:1;vector-effect:none;fill:url(#linearGradient852);fill-opacity:1.0;stroke:#000000;stroke-width:0.283963;stroke-linecap:butt;stroke-linejoin:miter;stroke-miterlimit:4;stroke-dasharray:none;stroke-dashoffset:0;stroke-opacity:1;stop-color:#000000;stop-opacity:1"
         d="m 7.31217,6.7663346 9.40288,9.3357164 -0.134327,2.082066 H 14.901637 L 5.498758,9.5200346 Z"
         id="path6561"
         inkscape:export-xdpi="97.097099"
         inkscape:export-ydpi="97.097099" />
      <ellipse
         style="fill:url(#linearGradient852);stroke:#000000;stroke-width:0.57189;stop-color:#000000;fill-opacity:1.0"
         id="path840"
         cx="7.0853095"
         cy="8.9247808"
         rx="5.8530812"
         ry="5.7128859"
         transform="matrix(0.97604759,-0.21755714,0,1,0,0)" />
    </g>
    <rect
       style="fill:#000000;fill-opacity:1;stroke:none;stroke-width:0.1;stroke-miterlimit:4;stroke-dasharray:none;stop-color:#000000"
       id="rect866"
       width="0.15869127"
       height="0.56794775"
       x="31.646385"
       y="2.4137778"
       inkscape:export-xdpi="97.097099"
       inkscape:export-ydpi="97.097099" />
    <path
       style="fill:#cecece;fill-opacity:1;stroke:none;stroke-width:0.264583px;stroke-linecap:butt;stroke-linejoin:miter;stroke-opacity:1"
       d="m 30.589168,2.8191849 -0.334087,9.1539811 2.071339,0.06682 0.400903,-9.4212503 z"
       id="path854"
       inkscape:export-xdpi="97.097099"
       inkscape:export-ydpi="97.097099" />
    <path
       id="path856"
       style="fill:#967f21;fill-opacity:1;stroke:#000000;stroke-width:0.1;stroke-linecap:butt;stroke-linejoin:miter;stroke-miterlimit:4;stroke-dasharray:none;stroke-opacity:1"
       d="m 29.812872,11.847117 c 0,0 0.02377,0.354278 0.189136,0.649573 0.165364,0.295293 0.791166,0.531751 0.791166,0.531751 l -0.09457,0.153478 -0.791166,0.02377 -0.01188,0.17725 0.756026,-0.01188 -0.02377,0.165364 -0.814939,-0.02377 -0.01188,0.165364 0.897619,0.04703 0.0708,0.201021 c 0,0 -0.921243,0.118043 -0.89762,0.236161 0.02362,0.118118 0.0358,0.165217 0.142111,0.224276 0.106306,0.05906 0.74414,0.106454 0.74414,0.106454 L 30.56891,14.90637 c 0,0 -1.464954,0.34254 -1.453142,0.413411 0.01181,0.07087 -0.03514,0.283704 -0.03514,0.283704 l 1.819011,0.105937 0.413411,0.0035 0.412895,-0.0035 1.819011,-0.105937 c 0,0 -0.04695,-0.212834 -0.03514,-0.283704 0.0118,-0.07087 -1.453142,-0.413411 -1.453142,-0.413411 l -0.188619,-0.413411 c 0,0 0.637834,-0.04739 0.744141,-0.106454 0.10631,-0.05906 0.117972,-0.106158 0.141592,-0.224276 0.02363,-0.118118 -0.897619,-0.236161 -0.897619,-0.236161 l 0.0708,-0.201021 0.897619,-0.04703 -0.01188,-0.165364 -0.814937,0.02377 -0.02377,-0.165365 0.756026,0.01188 -0.01188,-0.17725 -0.791179,-0.02377 -0.09457,-0.153478 c 0,0 0.626318,-0.236458 0.791683,-0.531751 0.165367,-0.295295 0.188618,-0.649573 0.188618,-0.649573 l -1.476395,0.03566 -0.02325,-0.01085 -0.02377,0.01085 z"
       sodipodi:nodetypes="csccccccccccssccscccccsccssccccccccccsccccc"
       inkscape:export-xdpi="97.097099"
       inkscape:export-ydpi="97.097099" />
    <path
       id="path861"
       style="fill:#962121;fill-opacity:1;stroke:none;stroke-width:0.1;stroke-miterlimit:4;stroke-dasharray:none;stop-color:#000000"
       d="m 31.809132,0.10623198 c 0,0 -0.224571,0.25978482 -0.3545,0.48420817 C 31.324703,0.81486351 31.171445,2.090607 31.171445,2.090607 l 0.01344,0.00103 a 0.55515253,0.52562315 0 0 0 -0.0021,0.040308 0.55515253,0.52562315 0 0 0 0.555522,0.5255493 0.55515253,0.52562315 0 0 0 0.555004,-0.5255493 0.55515253,0.52562315 0 0 0 -0.04961,-0.2165242 C 32.197135,1.5569457 32.092832,0.76395328 32.045294,0.60232573 31.986235,0.4015259 31.809132,0.10623198 31.809132,0.10623198 Z"
       inkscape:export-xdpi="97.097099"
       inkscape:export-ydpi="97.097099" />
    <circle
       style="fill:#5d4e14;fill-opacity:1;stroke:#000000;stroke-width:0.4;stroke-miterlimit:4;stroke-dasharray:none;stop-color:#000000;stroke-opacity:1"
       id="path868"
       cx="53.956104"
       cy="9.8273802"
       r="8.2209816"
       inkscape:export-xdpi="97.097099"
       inkscape:export-ydpi="97.097099" />
    <path
       style="fill:none;stroke:#000000;stroke-width:0.264583px;stroke-linecap:butt;stroke-linejoin:miter;stroke-opacity:1"
       d="m 48.643053,13.864607 c 0,-0.04454 -0.01222,-0.0908 0,-0.133635 0.02098,-0.07338 0.356094,-0.437848 0.400904,-0.467722 0.0293,-0.01953 0.07205,-0.01228 0.100227,-0.03341 0.199877,-0.149906 0.356486,-0.360156 0.567947,-0.50113 0.124301,-0.08287 0.338449,-0.180847 0.434313,-0.300678 0.02201,-0.0275 0.0085,-0.07532 0.03341,-0.100226 0.03522,-0.03522 0.09311,-0.03787 0.133636,-0.06682 0.03205,-0.02289 0.344635,-0.295988 0.367495,-0.334086 0.09855,-0.164252 0.353894,-0.45412 0.501129,-0.601357 0.01762,-0.01761 0.04921,-0.0158 0.06682,-0.03341 0.07658,-0.07658 0.225475,-0.236568 0.267269,-0.334086 0.01315,-0.03071 -0.01495,-0.07034 0,-0.100227 0.01185,-0.02373 0.10995,-0.0647 0.133636,-0.100226 0.07525,-0.112883 0.159038,-0.221855 0.23386,-0.334087 0.02135,-0.03201 0.03316,-0.09998 0.06682,-0.133634 0.02021,-0.02021 0.114691,-0.06234 0.133635,-0.100226 0.0099,-0.01992 -0.01574,-0.05107 0,-0.06682 0.0079,-0.0079 0.02553,0.0079 0.03341,0 0.0378,-0.0378 -0.05657,-0.2365171 -0.06682,-0.2672693 C 51.948556,9.5490098 52.119365,10.026222 51.917105,9.621703 51.84486,9.4772127 51.752679,9.0488319 51.716654,8.8867116 51.680922,8.7259177 51.615199,8.5798955 51.583018,8.41899 51.482569,7.9167357 51.373198,7.4126666 51.248931,6.9155989 c -0.01114,-0.033409 -0.02228,-0.066817 -0.03341,-0.100226 -0.01114,-0.011136 -0.02756,-0.018785 -0.03341,-0.033409 C 51.107941,6.5965296 51.08058,6.4287764 50.98166,6.2474249 50.94321,6.1769259 50.863775,6.1257176 50.848025,6.0469726 c -0.03055,-0.1527731 -0.01397,-0.3808233 0,-0.534539 0.01103,-0.1214599 0.0832,-0.3733938 0.167044,-0.4677217 0.05778,-0.065007 0.146119,-0.099126 0.200451,-0.1670434 0.03746,-0.046829 0.03462,-0.1164486 0.06682,-0.1670433 0.0467,-0.073379 0.114014,-0.1315125 0.167045,-0.2004523 0.165335,-0.2149359 0.308123,-0.4751689 0.501129,-0.6681737 0.189412,-0.1894129 0.353388,-0.3017163 0.601358,-0.4009044 0.0414,-0.01656 0.09145,-0.089681 0.133633,-0.100226 0.03241,-0.0081 0.06747,0.00655 0.100227,0 0.07854,-0.015708 0.155895,-0.080735 0.23386,-0.100226 0.04321,-0.010803 0.0897,0.00732 0.133635,0 0.08621,0.034548 0.131387,-0.053005 0.200451,-0.066817 0.302014,-0.060403 0.673447,-0.049234 0.968854,0 0.201486,0.033581 0.415915,-0.028405 0.601356,0.033409 0.09711,0.03237 0.24366,-0.045214 0.334086,0 0.131295,0.065647 0.286782,0.0039 0.434314,0.033409 0.156559,0.031312 0.565219,0.1186341 0.701582,0.200452 0.02701,0.016206 0.03947,0.05119 0.06682,0.066817 0.09959,0.05691 0.266168,0.090209 0.367496,0.1336347 0.07861,0.03369 0.157895,0.1344879 0.23386,0.1670436 0.03071,0.01316 0.06853,-0.010565 0.100227,0 0.0085,0.00284 0.198014,0.2949887 0.200451,0.300678 0.02962,0.069118 0.16002,0.4413377 0.100226,0.5011304 -0.046,0.045998 -0.144946,0.092006 -0.200453,0.1336349 -0.07495,0.056213 -0.181295,0.2052029 -0.267269,0.2338607 -0.07547,0.025157 -0.283252,-0.050835 -0.334087,0 -0.03009,0.030089 0.181004,0.4233371 0.200451,0.5011304 0.01834,0.073368 -0.01834,0.1604928 0,0.233861 0.01879,0.075189 0.05457,0.1603541 0.06682,0.2338607 0.04461,0.2676514 -0.06559,0.572829 0,0.8352173 0.0222,0.088826 0.09426,0.2219285 0.133636,0.3006783 0.03341,0.066817 0.133636,0.1002261 0.167042,0.1670434 0.005,0.00996 0,0.022273 0,0.033409 0.01114,0.033409 0.01228,0.072053 0.03341,0.100226 0.01495,0.01992 0.04921,0.015801 0.06682,0.033409 0.04392,0.043922 0.110177,0.2303078 0.133635,0.3006783 0.0186,0.05577 0,0.1403429 0,0.200452 0,0.023469 0.01656,0.1504773 0,0.1670436 -0.01019,0.010173 -0.312891,0.09316 -0.334086,0.1002261 -0.08276,0.027587 -0.203404,0.1154549 -0.300678,0.066817 -0.03719,-0.018598 -0.224139,-0.057094 -0.233863,-0.066817 -0.0079,-0.00787 0.0079,-0.025535 0,-0.033409 -0.01669,-0.016706 -0.08352,0.016703 -0.100224,0 -0.0079,-0.00787 0.01114,-0.033409 0,-0.033409 -0.02228,0 0,0.044545 0,0.066817 0,0.08909 0,0.1781796 0,0.2672693 0,0.2346974 0.04712,0.1413622 0.100224,0.3006784 0.03341,0.100226 -0.01669,0.033409 0,0.100226 0.02358,0.094264 0.07069,0.1452411 0.100227,0.2338609 0.04608,0.1382448 -0.0019,0.3751112 -0.03341,0.5011304 -0.0038,0.01528 -0.02959,0.018129 -0.03341,0.033409 -0.0081,0.032411 0.0092,0.068103 0,0.100226 -0.04099,0.1434751 -0.05196,0.1262065 -0.133633,0.1670434 -0.05728,0.028639 -0.0137,0.064814 -0.06682,0.1002262 -0.177636,0.1184232 -0.556254,0.1336342 -0.7684,0.1336342 -0.09045,0 -0.218985,0.02723 -0.300678,0 -0.01056,-0.0035 0.0079,-0.02553 0,-0.03341 -0.01574,-0.01575 -0.05107,0.01575 -0.06682,0 -0.01574,-0.01575 0.01992,-0.05686 0,-0.06682 -0.01992,-0.01 -0.04569,0.007 -0.06682,0 -0.0595,-0.01983 -0.08374,-0.1418797 -0.167043,-0.1002258 -0.01013,0.00507 -0.0024,0.1957438 0,0.2004518 0.02633,0.05266 0.234681,0.278952 0.267269,0.300678 0.0499,0.03327 0.119068,0.03084 0.167042,0.06682 0.03887,0.02915 0.09231,0.125715 0.133636,0.167043 0.05764,0.05764 0.117512,0.06759 0.167042,0.133635 0.072,0.096 0.127961,0.204023 0.200454,0.300678 0.01495,0.01992 0.02228,0.04454 0.03341,0.06682 0.01114,0.03341 0.01228,0.07205 0.03341,0.100226 0.01495,0.01992 0.05188,0.01349 0.06682,0.03341 0.07231,0.09642 0.112662,0.258735 0.167042,0.367496 0.007,0.01409 0.02228,0.02227 0.03341,0.03341 0.02228,0.02227 0.05273,0.03865 0.06682,0.06682 0.01495,0.02988 -0.02363,0.0766 0,0.100226 0.01762,0.01761 0.04921,0.0158 0.06682,0.03341 0.13534,0.135341 0.219514,0.372214 0.300678,0.534539 0.06336,0.126728 0.193604,0.248428 0.300678,0.334087 0.05071,0.04056 0.121126,0.05431 0.167042,0.100226 0.129172,0.129172 0.256148,0.445475 0.334089,0.601356 0.03534,0.07068 0.12921,0.173329 0.167042,0.233861 0.06961,0.11137 0.09949,0.266169 0.167045,0.367496 0.07404,0.111053 0.171286,0.175532 0.23386,0.300678 0.01929,0.0386 0.151254,0.174025 0.133636,0.200452 -0.05402,0.08103 -0.134536,0.101125 -0.200454,0.167044 -0.31147,0.311471 -0.09223,0.183411 -0.467722,0.50113 -0.228421,0.19328 -0.520335,0.335755 -0.768398,0.50113 -0.166079,0.110718 -0.704244,0.227711 -0.902036,0.26727 -0.02442,0.0049 -0.04454,0.02227 -0.06682,0.03341 -0.06682,0.02227 -0.131157,0.05422 -0.200451,0.06682 -0.224324,0.04079 -0.474107,-0.01896 -0.701582,0 -0.154758,0.0129 -0.310542,0.05306 -0.467723,0.03341 -0.248496,-0.03106 -0.460618,-0.185668 -0.701582,-0.233861 -0.0546,-0.01092 -0.111638,0.0055 -0.167042,0 -0.106297,0.06965 -0.153604,-0.05535 -0.233863,-0.06682 -0.110791,-0.01583 -0.222853,-0.02105 -0.334087,-0.03341 -0.0902,-0.01002 -0.212978,0.01253 -0.300677,0 -0.209476,-0.02993 -0.427718,-0.121033 -0.634765,-0.167044 -0.04348,-0.0097 -0.09042,0.0108 -0.133636,0 -0.141231,-0.03531 -0.26916,-0.147755 -0.400904,-0.200452 -0.02069,-0.0083 -0.04689,0.01 -0.06682,0 -0.13312,-0.06656 -1.46e-4,-0.06685 -0.133633,-0.100226 -0.134985,-0.03375 -0.308491,-0.0884 -0.434314,-0.167043 -0.04722,-0.02951 -0.08131,-0.0812 -0.133635,-0.100227 -0.074,-0.02691 -0.158597,-0.01025 -0.23386,-0.03341 -0.0329,-0.01012 -0.275032,-0.141734 -0.334087,-0.167044 -0.139869,-0.05994 -0.298699,-0.09924 -0.434314,-0.167043 -0.196553,-0.09828 -0.554267,-0.253591 -0.701582,-0.400904 -0.0079,-0.0079 0.0079,-0.02554 0,-0.03341 -0.0079,-0.0079 -0.02553,0.0079 -0.03341,0 -0.07079,-0.07079 -0.09475,-0.122692 -0.133633,-0.200452 -0.02302,-0.04604 -0.07835,-0.04494 -0.100227,-0.06682 -0.0249,-0.0249 -7.94e-4,-0.08715 -0.03341,-0.100226 -0.05272,-0.02109 -0.111363,-0.02227 -0.167044,-0.03341 z"
       id="path872"
       inkscape:export-xdpi="97.097099"
       inkscape:export-ydpi="97.097099" />
    <path
       style="fill:none;stroke:#000000;stroke-width:0.264583px;stroke-linecap:butt;stroke-linejoin:miter;stroke-opacity:1"
       d="m 46.798176,10.937686 c 0.170329,-0.05904 0.331023,-0.141867 0.496094,-0.212612 0.03691,-0.01582 0.08973,0.0048 0.118118,-0.02362 0.0056,-0.0056 -0.0056,-0.01805 0,-0.02362 0.01455,-0.01456 0.07526,0.09888 0.09449,0.118118 0.08117,0.08117 0.164577,0.09068 0.283483,0.118117 0.108511,0.02504 0.219919,0.03617 0.330729,0.04725 0.05329,0.0053 0.210286,-0.03804 0.236236,-0.02362 0.03261,0.01812 0.210825,0.141146 0.283483,0.165364 0.124526,0.04151 0.364791,0.0528 0.496093,0.02362 0.241816,-0.05374 0.08589,-0.04725 0.236234,-0.04725"
       id="path878"
       inkscape:export-xdpi="97.097099"
       inkscape:export-ydpi="97.097099" />
    <path
       style="fill:none;stroke:#000000;stroke-width:0.264583px;stroke-linecap:butt;stroke-linejoin:miter;stroke-opacity:1"
       d="m 57.688617,11.622768 c 0.887637,-0.168734 0.373888,0.103742 0.992187,0.236235 0.110305,0.02364 0.384495,-0.09123 0.472469,-0.04725 0.08159,0.04079 0.125558,0.145462 0.212612,0.188988 0.03591,0.01796 0.07938,0.01306 0.118118,0.02363 0.165362,0.0451 0.303379,0.04725 0.472469,0.04725"
       id="path880"
       inkscape:export-xdpi="97.097099"
       inkscape:export-ydpi="97.097099" />
  </g>
</svg>
